<?xml version="1.0" encoding="UTF-8"?>
<svg width="338px" height="192px" viewBox="0 0 338 192" version="1.1" xmlns="http://www.w3.org/2000/svg" xmlns:xlink="http://www.w3.org/1999/xlink">
    <!-- Generator: Sketch 46.2 (44496) - http://www.bohemiancoding.com/sketch -->
    <title>Group 7</title>
    <desc>Created with Sketch.</desc>
    <defs>
        <polygon id="path-1" points="0.000502109836 0.413983631 221.728064 0.413983631 221.728064 229.841667 0.000502109836 229.841667"></polygon>
        <polygon id="path-3" points="150.796841 172 0.236453917 172 0.236453917 0.507733543 150.796841 0.507733543 150.796841 172"></polygon>
    </defs>
    <g id="Landing-Page" stroke="none" stroke-width="1" fill="none" fill-rule="evenodd">
        <g id="Wana-Landing-Page---v3" transform="translate(-168.000000, -4520.000000)">
            <g id="CTA" transform="translate(150.000000, 4520.000000)">
                <g id="Group-7">
                    <g id="Group-37" transform="translate(18.000000, -27.000000)">
                        <g id="Group-7">
                            <g id="Group-6">
                                <mask id="mask-2" fill="white">
                                    <use xlink:href="#path-1"></use>
                                </mask>
                                <g id="Clip-5"></g>
                                <path d="M215.170664,1.9016365 C214.826685,1.0037759 214.107079,0.339789162 213.165951,0.419091221 C209.940798,0.694632275 203.969312,0.968829225 200.159394,1.24168207 C198.826129,1.33845747 198.019841,2.73229197 198.594975,3.95945773 C204.430245,16.4381072 208.266306,36.5539482 189.182317,49.7301869 C169.420001,63.3741734 141.641584,59.5811156 118.230332,58.0246447 C98.1900796,56.6926389 79.4376873,54.0138422 64.0948209,70.0342023 C48.1396708,86.6970434 44.8925033,114.190664 55.8970989,134.487959 C61.9277494,145.607721 72.1329364,153.859167 83.6053442,158.625355 C89.6470021,161.134795 96.0835485,162.5582 102.60265,162.863311 C106.053453,163.025947 109.51664,162.907666 112.944053,162.46008 C114.787784,162.218142 119.200354,160.210052 119.515439,162.48293 C96.3724913,171.792185 68.2019374,163.226219 52.8150417,143.658772 C42.5506902,130.602158 38.5013622,113.322374 40.5776232,96.873245 C38.6293227,98.8100969 36.7044128,100.78324 34.9611241,102.90961 C27.6797638,111.791441 22.5255734,122.334582 19.5205675,133.477194 C18.9399299,135.62507 16.8127601,136.93557 14.6910938,136.377767 C10.1877128,135.194957 5.97602651,132.842777 2.59677085,129.596769 C1.5029157,128.545681 -0.273394992,129.4758 0.0361866547,130.97313 C2.16335655,141.251484 7.26113432,151.766399 16.4357584,154.76778 C15.7257845,183.756043 28.975879,210.490246 51.1694432,227.596641 C56.1062385,231.400452 63.0449952,230.235115 66.6705402,225.12618 C73.7895422,215.099174 85.1147268,208.315488 97.7855596,208.013065 C107.324802,207.783223 116.581981,215.049442 122.528701,223.857347 C126.104713,229.150424 133.468628,230.114145 138.219674,225.885598 C158.163612,208.143443 174.472373,187.694264 187.908217,163.308209 C177.188436,136.872397 175.595123,102.794017 190.563739,74.9159833 C192.443244,75.1888361 195.772966,74.4079125 197.653847,74.6807653 C196.154096,81.7924127 189.563447,89.3166996 192.532678,96.2119464 C194.873116,101.642121 199.393008,105.708032 204.201843,108.862641 C206.011175,110.049484 207.889304,111.085787 209.801831,112.034723 C218.183926,84.6728248 228.847294,37.7206293 215.170664,1.9016365" id="Fill-4" fill="#29C7D2" mask="url(#mask-2)"></path>
                            </g>
                            <g id="Group-9" transform="translate(187.000000, 65.000000)">
                                <mask id="mask-4" fill="white">
                                    <use xlink:href="#path-3"></use>
                                </mask>
                                <g id="Clip-8"></g>
                                <path d="M149.021766,102.783881 C147.335377,104.914876 144.996881,106.360099 142.173315,106.976444 C140.509642,107.33775 138.844634,106.139065 138.421032,104.396296 C136.407253,96.1131848 132.86343,88.2508886 127.689342,81.6737073 C126.492032,80.1491387 125.167775,78.737921 123.830156,77.3507904 C125.25597,89.1265237 122.475165,101.497349 115.423598,110.843124 C104.856271,124.851868 85.5028814,130.984148 69.6064566,124.317703 C69.8202619,122.692535 72.8536248,124.130674 74.1204212,124.303534 C76.4736159,124.62375 78.8535363,124.708763 81.2241027,124.592578 C85.7019876,124.372961 90.1237487,123.354221 94.272908,121.55761 C102.154306,118.14575 109.164448,112.238756 113.306926,104.278694 C120.86628,89.7485363 118.637359,70.0665833 107.675828,58.1378264 C97.1365628,46.6695573 84.2547929,48.586603 70.4897398,49.5401668 C54.4062354,50.6538386 36.6122885,51.6924155 23.0730673,40.6095391 C13.4398018,32.7245727 12.5351381,10.952714 16.9422,3.08333333 C17.4352885,2.19919693 16.9194832,1.11244595 15.9506779,1.05151989 C13.0215451,0.870158574 8.4942177,0.697298574 6.20249204,0.511686607 C5.57176637,0.460678738 5.0212177,0.908414475 4.86888142,1.5587648 C2.80432389,10.4128807 1.31303186,19.3279227 0.658253097,28.4639987 C-2.98579115,79.355683 17.1506602,134.574535 54.5077929,168.758308 C58.4471558,172.362864 64.337492,171.280364 67.3935717,166.812925 C71.8460673,160.302337 78.0036602,156.750206 84.5340761,156.913148 C92.9272708,157.122847 100.462572,161.646961 105.374749,168.408338 C108.370696,172.534307 113.916271,173.187492 117.756749,169.942824 C131.454988,158.366872 139.878917,141.089373 140.396058,122.213628 C146.564342,118.402207 150.589227,111.025902 150.79635,103.49374 C150.824412,102.469332 149.641802,101.998926 149.021766,102.783881" id="Fill-7" fill="#25C4CF" mask="url(#mask-4)"></path>
                            </g>
                            <path d="M151.224904,93.452705 C149.7015,93.7286883 148.396666,94.521967 147.009457,95.9587445 C145.455299,97.218005 144.630443,99.0763852 142.017481,101.274544 C141.29477,101.72111 140.440258,102.155194 139.37047,101.94578 C138.319354,101.762715 137.391253,100.782212 136.923358,99.8627296 C135.99306,97.953036 135.888718,96.1515167 136.07983,94.4304348 C136.970587,95.6633452 137.859148,96.8712923 138.611514,97.1195386 C139.372667,97.2901213 139.029983,96.7131913 139.50337,96.1709326 C140.150295,94.6967102 141.689076,91.397392 143.71662,89.482151 C145.734279,87.5377861 148.728366,86.1953145 151.591751,87.5488809 C154.428775,88.7859519 156.437648,92.0006721 157,95.4275806 C154.734115,93.9200737 152.757095,93.247451 151.224904,93.452705" id="Fill-10" fill="#00BDCA"></path>
                            <path d="M228.77454,143.452405 C230.298838,143.729501 231.602498,144.521844 232.99038,145.958248 C234.54552,147.219407 235.369946,149.076696 237.982012,151.275486 C238.705609,151.721835 239.55969,152.156201 240.629664,151.945009 C241.680659,151.763774 242.608286,150.784203 243.076845,149.86155 C244.006845,147.953336 244.111232,146.152963 243.92025,144.42898 C243.02821,145.664676 242.140914,146.870416 241.388848,147.119053 C240.627292,147.289804 240.968925,146.713146 240.495621,146.170937 C239.849129,144.697089 238.310596,141.397405 236.283339,139.483199 C234.265571,137.539037 231.270355,136.195498 228.407996,137.548024 C225.570548,138.785218 223.56227,142.001024 223,145.428022 C225.265688,143.919723 227.243124,143.247205 228.77454,143.452405" id="Fill-12" fill="#00BDCA"></path>
                        </g>
                    </g>
                </g>
            </g>
        </g>
    </g>
</svg>