<?xml version="1.0" encoding="UTF-8"?>
<svg width="110px" height="110px" viewBox="0 0 110 110" version="1.1" xmlns="http://www.w3.org/2000/svg" xmlns:xlink="http://www.w3.org/1999/xlink">
    <!-- Generator: Sketch 46.2 (44496) - http://www.bohemiancoding.com/sketch -->
    <title>graphic-1</title>
    <desc>Created with Sketch.</desc>
    <defs></defs>
    <g id="Email" stroke="none" stroke-width="1" fill="none" fill-rule="evenodd" stroke-linejoin="round">
        <g id="Artboard" transform="translate(-94.000000, -663.000000)" stroke-width="2.5">
            <g id="Outline_Icons_1_" transform="translate(118.000000, 687.000000)">
                <g id="Outline_Icons">
                    <g id="Group">
                        <g transform="translate(34.666667, 34.666667)" stroke="#5F70D0">
                            <polyline id="Shape" stroke-linecap="round" points="20.3333333 9.66666667 12.3333333 17.6666667 7 12.3333333"></polyline>
                            <circle id="Oval" cx="13.6666667" cy="13.6666667" r="13.3333333"></circle>
                        </g>
                        <g stroke="#9FA9E3">
                            <path d="M32,37.6666667 L32,30.1893333" id="Shape" stroke-linecap="round"></path>
                            <path d="M19,30.1893333 L19,37.6666667 L5.64266667,42.4373333 C2.45866667,43.576 0.333333333,46.592 0.333333333,49.9706667 L0.333333333,56.3333333 L29.6666667,56.3333333" id="Shape" stroke-linecap="round"></path>
                            <ellipse id="Oval" cx="25.6666667" cy="16.3333333" rx="13.3333333" ry="16"></ellipse>
                            <path d="M38.8746667,14.8746667 C38.4266667,14.9306667 38.1173333,14.912 37.6666667,15 C33.1253333,15.8746667 30.208,14.2293333 27.7093333,9.85333333 C26.208,12.728 21.5173333,15 17.6666667,15 C15.7706667,15 14.1386667,14.6106667 12.504,13.7573333" id="Shape"></path>
                        </g>
                    </g>
                </g>
            </g>
        </g>
    </g>
</svg>