<?xml version="1.0" encoding="UTF-8"?>
<svg width="110px" height="110px" viewBox="0 0 110 110" version="1.1" xmlns="http://www.w3.org/2000/svg" xmlns:xlink="http://www.w3.org/1999/xlink">
    <!-- Generator: Sketch 46.2 (44496) - http://www.bohemiancoding.com/sketch -->
    <title>graphic-4</title>
    <desc>Created with Sketch.</desc>
    <defs></defs>
    <g id="Email" stroke="none" stroke-width="1" fill="none" fill-rule="evenodd">
        <g id="Artboard" transform="translate(-403.000000, -981.000000)">
            <g id="Group-32" transform="translate(409.000000, 1012.000000)">
                <g id="Outline_Icons_1_" transform="translate(86.000000, 24.500000) rotate(90.000000) translate(-86.000000, -24.500000) translate(63.000000, 12.000000)" stroke-linecap="round" stroke-width="1.75" stroke-linejoin="round">
                    <g id="Outline_Icons">
                        <g id="Group">
                            <polyline id="Shape" stroke="#9FA9E3" points="7 20 7 15 12 15"></polyline>
                            <g id="Group-29" transform="translate(6.000000, 5.000000) rotate(-90.000000) translate(-6.000000, -5.000000) translate(1.000000, -1.000000)" stroke="#5F70D0">
                                <circle id="Oval" cx="5" cy="3" r="3"></circle>
                                <path d="M10,12 L0,12 C0,8.686 2.238,6 5,6 C7.762,6 10,8.686 10,12 Z" id="Shape"></path>
                            </g>
                            <g id="Group-31" transform="translate(40.000000, 5.000000) rotate(-90.000000) translate(-40.000000, -5.000000) translate(35.000000, -1.000000)" stroke="#5F70D0">
                                <circle id="Oval" cx="5" cy="3" r="3"></circle>
                                <path d="M10,12 L-1.13686838e-13,12 C-1.13686838e-13,8.686 2.238,6 5,6 C7.762,6 10,8.686 10,12 Z" id="Shape"></path>
                            </g>
                            <g id="Group-30" transform="translate(23.000000, 5.000000) rotate(-90.000000) translate(-23.000000, -5.000000) translate(18.000000, -1.000000)" stroke="#5F70D0">
                                <circle id="Oval" cx="5" cy="3" r="3"></circle>
                                <path d="M10,12 L0,12 C0,8.686 2.238,6 5,6 C7.762,6 10,8.686 10,12 Z" id="Shape"></path>
                            </g>
                            <path d="M7,15 L16.938,24.978" id="Shape" stroke="#9FA9E3"></path>
                            <polyline id="Shape" stroke="#9FA9E3" points="39 20 39 15 34 15"></polyline>
                            <path d="M39,15 L29.062,24.978" id="Shape" stroke="#9FA9E3"></path>
                            <path d="M23,24.968 L23,15" id="Shape" stroke="#9FA9E3"></path>
                            <polyline id="Shape" stroke="#9FA9E3" points="19.032 17.968 23 15 27.032 18"></polyline>
                        </g>
                    </g>
                </g>
                <g id="Outline_Icons_1_-Copy" transform="translate(13.000000, 24.500000) scale(1, -1) rotate(-90.000000) translate(-13.000000, -24.500000) translate(-10.000000, 12.000000)" stroke-linecap="round" stroke-width="1.75" stroke-linejoin="round">
                    <g id="Outline_Icons" transform="translate(0.000000, 0.000000)">
                        <g id="Group" transform="translate(0.000000, 0.000000)">
                            <g id="Group-28" transform="translate(40.000000, 5.000000) rotate(90.000000) translate(-40.000000, -5.000000) translate(35.000000, -1.000000)" stroke="#5F70D0">
                                <circle id="Oval" transform="translate(5.000000, 9.000000) scale(1, -1) translate(-5.000000, -9.000000) " cx="5" cy="9" r="3"></circle>
                                <path d="M10,6 L-1.13686838e-13,6 C-1.13686838e-13,2.686 2.238,0 5,0 C7.762,0 10,2.686 10,6 Z" id="Shape" transform="translate(5.000000, 3.000000) scale(1, -1) translate(-5.000000, -3.000000) "></path>
                            </g>
                            <g id="Group-26" transform="translate(23.000000, 5.000000) rotate(90.000000) translate(-23.000000, -5.000000) translate(18.000000, -1.000000)" stroke="#5F70D0">
                                <circle id="Oval" transform="translate(5.000000, 9.000000) scale(1, -1) translate(-5.000000, -9.000000) " cx="5" cy="9" r="3"></circle>
                                <path d="M10,6 L0,6 C0,2.686 2.238,0 5,0 C7.762,0 10,2.686 10,6 Z" id="Shape" transform="translate(5.000000, 3.000000) scale(1, -1) translate(-5.000000, -3.000000) "></path>
                            </g>
                            <g id="Group-21" transform="translate(6.000000, 5.000000) rotate(90.000000) translate(-6.000000, -5.000000) translate(1.000000, -1.000000)" stroke="#5F70D0">
                                <path d="M10,6 L0,6 C0,2.686 2.238,0 5,0 C7.762,0 10,2.686 10,6 Z" id="Shape" transform="translate(5.000000, 3.000000) scale(1, -1) translate(-5.000000, -3.000000) "></path>
                                <circle id="Oval" transform="translate(5.000000, 9.000000) scale(1, -1) translate(-5.000000, -9.000000) " cx="5" cy="9" r="3"></circle>
                            </g>
                            <polyline id="Shape" stroke="#9FA9E3" points="7 20 7 15 12 15"></polyline>
                            <path d="M7,15 L16.938,24.978" id="Shape" stroke="#9FA9E3"></path>
                            <polyline id="Shape" stroke="#9FA9E3" points="39 20 39 15 34 15"></polyline>
                            <path d="M39,15 L29.062,24.978" id="Shape" stroke="#9FA9E3"></path>
                            <path d="M23,24.968 L23,15" id="Shape" stroke="#9FA9E3"></path>
                            <polyline id="Shape" stroke="#9FA9E3" points="19.032 17.968 23 15 27.032 18"></polyline>
                        </g>
                    </g>
                </g>
                <g id="group-add-1" transform="translate(25.000000, 0.000000)">
                    <g id="Invisible_Shape">
                        <rect id="Rectangle-path" x="0" y="0" width="48" height="48"></rect>
                    </g>
                    <g id="Outline_Icons_1_" transform="translate(9.000000, 8.000000)" stroke-width="2" stroke="#5F70D0" stroke-linejoin="round">
                        <g id="Outline_Icons">
                            <g id="Group">
                                <g id="Shape">
                                    <path d="M11,17.646 L11,21.734 L3.118,24.558 C1.23,25.234 0,27.024 0,29.024 L0,32 L30,32 L30,29.024 C30,27.024 28.768,25.234 26.882,24.558 L19,21.734 L19,17.644"></path>
                                    <path d="M22.894,9.472 C22.894,14.708 19.358,18.954 15,18.954 C10.638,18.954 7.106,14.708 7.106,9.472 C7.106,4.242 10.638,0 15,0 C19.36,0 22.894,4.242 22.894,9.472 Z"></path>
                                    <path d="M22.832,8.622 C22.568,8.658 22.35,8.634 22.084,8.688 C19.394,9.204 17.668,8.23 16.186,5.638 C15.3,7.342 12.524,8.688 10.242,8.688 C9.118,8.688 8.152,8.458 7.186,7.95"></path>
                                </g>
                            </g>
                        </g>
                    </g>
                </g>
            </g>
        </g>
    </g>
</svg>