<?xml version="1.0" encoding="UTF-8"?>
<svg width="2px" height="10px" viewBox="0 0 2 10" version="1.1" xmlns="http://www.w3.org/2000/svg" xmlns:xlink="http://www.w3.org/1999/xlink">
    <!-- Generator: Sketch 46.2 (44496) - http://www.bohemiancoding.com/sketch -->
    <title>Group 4</title>
    <desc>Created with Sketch.</desc>
    <defs></defs>
    <g id="11---Sitting" stroke="none" stroke-width="1" fill="none" fill-rule="evenodd">
        <g id="Sitting---Awaiting-Completion" transform="translate(-64.000000, -435.000000)">
            <g id="Group-4" transform="translate(60.000000, 435.000000)">
                <rect id="Rectangle-4-Copy-4" x="0" y="0" width="10" height="10"></rect>
                <path d="M5,10 C4.44771528,10 4,9.55228472 4,9 C4,8.44771528 4.44771528,8 5,8 C5.55228472,8 6,8.44771528 6,9 C6,9.55228472 5.55228472,10 5,10 Z M5,0 L5,0 C5.55228475,-1.01453063e-16 6,0.44771525 6,1 L6,6 L6,6 C6,6.55228475 5.55228475,7 5,7 C4.44771525,7 4,6.55228475 4,6 L4,1 L4,1 C4,0.44771525 4.44771525,1.01453063e-16 5,0 L5,0 Z" id="Combined-Shape" fill="#FFFFFF" fill-rule="nonzero"></path>
            </g>
        </g>
    </g>
</svg>