<?xml version="1.0" encoding="UTF-8"?>
<svg width="24px" height="20px" viewBox="0 0 24 20" version="1.1" xmlns="http://www.w3.org/2000/svg" xmlns:xlink="http://www.w3.org/1999/xlink">
    <!-- Generator: Sketch 46.2 (44496) - http://www.bohemiancoding.com/sketch -->
    <title>Combined Shape</title>
    <desc>Created with Sketch.</desc>
    <defs></defs>
    <g id="Symbols" stroke="none" stroke-width="1" fill="none" fill-rule="evenodd">
        <path d="M5.58578644,3 L4.87867966,3.29289322 L5.17157288,3 L5.58578644,3 Z M20,3 C22.2107348,3 24,4.79056926 24,7.00276013 L24,15.9972399 C24,18.2036589 22.210599,20 20.0092049,20 L3.99079514,20 C1.78402929,20 0,18.2083233 0,15.9972399 L0,7.00276013 C0,4.78930265 1.78593582,3 4,3 L5.17157288,3 L7.87867966,0.292893219 C8.06621604,0.10535684 8.32056995,0 8.58578644,0 L15.4142136,0 C15.6794301,0 15.933784,0.10535685 16.1213204,0.292893243 L16.4142136,0.585786436 L18.8284272,3 L20,3 Z M6.29289322,4.70710678 C6.10535684,4.89464316 5.85100293,5 5.58578644,5 L4,5 C2.89134943,5 2,5.8930298 2,7.00276013 L2,15.9972399 C2,17.1056644 2.89051837,18 3.99079514,18 L20.0092049,18 C21.1042927,18 22,17.1008188 22,15.9972399 L22,7.00276013 C22,5.89481271 21.105839,5 20,5 L18.4142136,5 C18.1489971,5 17.8946432,4.89464316 17.7071068,4.70710678 L15,2 L9,2 L6.29289322,4.70710678 Z M12,16 C9.23857625,16 7,13.7614237 7,11 C7,8.23857625 9.23857625,6 12,6 C14.7614237,6 17,8.23857625 17,11 C17,13.7614237 14.7614237,16 12,16 Z M12,14 C13.6568542,14 15,12.6568542 15,11 C15,9.34314575 13.6568542,8 12,8 C10.3431458,8 9,9.34314575 9,11 C9,12.6568542 10.3431458,14 12,14 Z" id="Combined-Shape" fill="#FFFFFF" fill-rule="nonzero"></path>
    </g>
</svg>