<?xml version="1.0" encoding="UTF-8"?>
<svg width="442px" height="127px" viewBox="0 0 442 127" version="1.1" xmlns="http://www.w3.org/2000/svg" xmlns:xlink="http://www.w3.org/1999/xlink">
    <!-- Generator: Sketch 46.2 (44496) - http://www.bohemiancoding.com/sketch -->
    <title>Group 2</title>
    <desc>Created with Sketch.</desc>
    <defs></defs>
    <g id="_Styles" stroke="none" stroke-width="1" fill="none" fill-rule="evenodd">
        <g id="Group-2">
            <path d="M209.449306,106.494079 C210.348428,109.690957 212.346477,111.189493 215.543355,111.189493 L225.333794,111.189493 C228.630574,111.189493 230.628623,109.591054 231.427842,106.394176 L236.023355,87.4127129 C236.722672,84.6154447 237.022379,81.9180788 237.022379,81.9180788 L237.222184,81.9180788 C237.222184,81.9180788 237.521891,84.6154447 238.221208,87.4127129 L242.81672,106.394176 C243.61594,109.591054 245.613989,111.189493 248.910769,111.189493 L258.501403,111.189493 C261.698281,111.189493 263.69633,109.690957 264.595452,106.494079 L275.98433,65.9336886 C276.983355,62.1373959 275.185111,59.7397373 271.288916,59.7397373 L264.695355,59.7397373 C261.298672,59.7397373 259.400525,61.3381764 258.701208,64.6349568 L253.306477,90.1100788 C252.707062,92.9073471 252.607159,95.5048105 252.607159,95.5048105 L252.407355,95.5048105 C252.407355,95.5048105 252.307452,92.9073471 251.608135,90.1100788 L245.613989,64.5350544 C244.914672,61.3381764 242.916623,59.7397373 239.619842,59.7397373 L234.62472,59.7397373 C231.32794,59.7397373 229.329891,61.3381764 228.630574,64.5350544 L222.636428,90.1100788 C221.937111,92.9073471 221.737306,95.5048105 221.737306,95.5048105 L221.537501,95.5048105 C221.537501,95.5048105 221.537501,92.9073471 220.938086,90.1100788 L215.543355,64.6349568 C214.844038,61.3381764 212.945891,59.7397373 209.549208,59.7397373 L202.755842,59.7397373 C198.859647,59.7397373 197.061403,62.1373959 198.060428,65.9336886 L209.449306,106.494079 Z M278.581794,96.7036398 C278.581794,82.9171032 294.965794,79.1208105 307.653403,79.1208105 L309.15194,79.1208105 L309.15194,78.2216886 C309.15194,73.9258837 305.655355,72.5272495 301.859062,72.5272495 C298.562281,72.5272495 295.165598,73.6261764 292.568135,74.8250056 C289.271355,76.2236398 286.773794,75.6242251 285.175355,72.4273471 L283.976525,69.9297861 C282.477989,66.8328105 283.077403,64.1354447 286.174379,62.5370056 C290.070574,60.7387617 296.06472,58.5409081 303.457501,58.5409081 C317.643647,58.5409081 326.435062,66.4332008 326.435062,79.5204203 L326.435062,105.694859 C326.435062,109.291347 324.536916,111.189493 320.940428,111.189493 L316.145111,111.189493 C312.548623,111.189493 310.650477,109.39125 310.650477,105.594957 L310.650477,105.195347 C310.650477,104.595932 310.750379,104.196323 310.750379,104.196323 L310.550574,104.196323 C310.550574,104.196323 305.655355,112.388323 295.365403,112.388323 C285.475062,112.388323 278.581794,105.594957 278.581794,96.7036398 Z M295.665111,95.1052008 C295.665111,97.5028593 297.363452,99.5009081 300.56033,99.5009081 C305.555452,99.5009081 309.351745,94.6056886 309.351745,90.4097861 L309.351745,89.011152 L307.753306,89.011152 C302.458477,89.011152 295.665111,90.4097861 295.665111,95.1052008 Z M335.825891,105.694859 C335.825891,109.291347 337.724038,111.189493 341.320525,111.189493 L347.614379,111.189493 C351.210867,111.189493 353.109013,109.291347 353.109013,105.694859 L353.109013,87.9122251 C353.109013,80.6193471 356.605598,74.225591 364.298086,74.225591 C368.094379,74.225591 369.992525,76.2236398 369.992525,81.0189568 L369.992525,105.694859 C369.992525,109.291347 371.890672,111.189493 375.487159,111.189493 L381.781013,111.189493 C385.377501,111.189493 387.275647,109.291347 387.275647,105.694859 L387.275647,77.8220788 C387.275647,63.3362251 379.18355,58.5409081 368.793696,58.5409081 C359.702574,58.5409081 354.807355,63.4361276 352.409696,67.4322251 L352.209891,67.4322251 C352.209891,67.4322251 352.309794,66.6330056 352.309794,66.1334934 L352.309794,65.2343715 C352.309794,61.6378837 350.51155,59.7397373 346.915062,59.7397373 L341.320525,59.7397373 C337.724038,59.7397373 335.825891,61.6378837 335.825891,65.2343715 L335.825891,105.694859 Z M393.269794,96.7036398 C393.269794,82.9171032 409.653794,79.1208105 422.341403,79.1208105 L423.83994,79.1208105 L423.83994,78.2216886 C423.83994,73.9258837 420.343355,72.5272495 416.547062,72.5272495 C413.250281,72.5272495 409.853598,73.6261764 407.256135,74.8250056 C403.959355,76.2236398 401.461794,75.6242251 399.863355,72.4273471 L398.664525,69.9297861 C397.165989,66.8328105 397.765403,64.1354447 400.862379,62.5370056 C404.758574,60.7387617 410.75272,58.5409081 418.145501,58.5409081 C432.331647,58.5409081 441.123062,66.4332008 441.123062,79.5204203 L441.123062,105.694859 C441.123062,109.291347 439.224916,111.189493 435.628428,111.189493 L430.833111,111.189493 C427.236623,111.189493 425.338477,109.39125 425.338477,105.594957 L425.338477,105.195347 C425.338477,104.595932 425.438379,104.196323 425.438379,104.196323 L425.238574,104.196323 C425.238574,104.196323 420.343355,112.388323 410.053403,112.388323 C400.163062,112.388323 393.269794,105.594957 393.269794,96.7036398 Z M410.353111,95.1052008 C410.353111,97.5028593 412.051452,99.5009081 415.24833,99.5009081 C420.243452,99.5009081 424.039745,94.6056886 424.039745,90.4097861 L424.039745,89.011152 L422.441306,89.011152 C417.146477,89.011152 410.353111,90.4097861 410.353111,95.1052008 Z" id="wana-copy" fill="#39437C"></path>
            <path d="M114.984631,1.01730613 C114.800812,0.536983474 114.416264,0.181774802 113.913336,0.22419851 C112.189853,0.371602918 108.998762,0.518288281 106.962788,0.664254598 C106.250307,0.716025902 105.819436,1.4616765 106.126781,2.1181654 C109.245079,8.79378749 111.295024,19.5550283 101.096769,26.6038353 C90.5360232,33.9028701 75.6915692,31.8737226 63.1808759,31.0410675 C52.4716048,30.328493 42.4505506,28.8954345 34.2515062,37.4657425 C25.7252647,46.3797545 23.9900172,61.0878383 29.8707415,71.9461503 C33.093449,77.894817 38.546979,82.3090398 44.6776966,84.8587765 C47.9062863,86.2012352 51.3458998,86.9627048 54.8296297,87.1259282 C56.6736978,87.2129328 58.5243834,87.1496567 60.3559518,86.9102145 C61.3412194,86.7807862 63.6992443,85.7065316 63.8676222,86.9224382 C51.5003074,91.9025501 36.4463001,87.3200706 28.2237269,76.8522005 C22.7385802,69.8673887 20.5746678,60.6233346 21.6841968,51.823651 C20.6430483,52.8597961 19.6143994,53.9153555 18.6828068,55.0528861 C14.7917349,59.8043414 12.0373972,65.4445374 10.4315579,71.4054278 C10.1212722,72.5544632 8.984538,73.2555329 7.85074494,72.9571289 C5.44419195,72.3243685 3.19351713,71.0660382 1.3876833,69.3295423 C0.803140185,68.7672484 -0.146099016,69.2648282 0.0193377157,70.0658453 C1.15607188,75.5643893 3.88026339,81.1894853 8.78307283,82.7951148 C8.40367126,98.3027776 15.4843634,112.6046 27.3443388,121.755898 C29.9825032,123.790797 33.6904918,123.167385 35.6279398,120.434291 C39.4322493,115.070209 45.4842926,111.441184 52.2554342,111.279399 C57.3530913,111.156442 62.3000172,115.043604 65.477873,119.755512 C67.3888511,122.587115 71.3240395,123.102671 73.8629418,120.840552 C84.5207437,111.349146 93.2359507,100.409582 100.415905,87.3639324 C94.6873823,73.2217378 93.8359346,54.9910481 101.834984,40.0773172 C102.839369,40.2232836 104.618733,39.8055179 105.623853,39.9514842 C104.822404,43.755956 101.30044,47.781175 102.887162,51.4698804 C104.137864,54.3748258 106.55324,56.5499396 109.123024,58.2375404 C110.08991,58.8724579 111.093559,59.4268423 112.11559,59.9344887 C116.594882,45.2968714 122.293258,20.1791602 114.984631,1.01730613" id="Fill-4" fill="#5F70D0"></path>
            <path d="M179.535754,89.8737207 C178.634592,91.0105676 177.384962,91.7815675 175.876122,92.1103763 C174.987099,92.3031263 174.097362,91.6636499 173.871001,90.7339147 C172.79489,86.315027 170.901164,82.1206363 168.136267,78.6118309 C167.496456,77.7985016 166.788809,77.0456428 166.07402,76.3056341 C166.835937,82.5877716 165.349948,89.1873796 161.581776,94.173179 C155.934874,101.646587 145.592932,104.918045 137.0983,101.361619 C137.212552,100.494622 138.833501,101.261843 139.510444,101.354061 C140.76793,101.52489 142.039696,101.570243 143.306465,101.50826 C145.699329,101.391099 148.062202,100.847619 150.279403,99.8891607 C154.491016,98.0689962 158.237051,94.9177231 160.450682,90.6711765 C164.490202,82.9196039 163.299126,72.4196434 157.441572,66.0558706 C151.809665,59.9377596 144.925986,60.9604683 137.570303,61.4691771 C128.975701,62.0633005 119.467084,62.6173622 112.23208,56.7048512 C107.084316,52.4983664 106.600887,40.8834795 108.955905,36.6853094 C109.219399,36.2136389 108.943766,35.6338772 108.426062,35.6013743 C106.860811,35.5046213 104.441526,35.4124037 103.216888,35.3133831 C102.879845,35.2861714 102.585646,35.5250302 102.504241,35.8719801 C101.400996,40.5954884 100.604089,45.3514996 100.254192,50.2254284 C98.3069107,77.3752075 109.067301,106.833451 129.029971,125.069867 C131.135063,126.992831 134.282704,126.415337 135.915793,124.03204 C138.295089,120.558761 141.585545,118.663764 145.075228,118.750691 C149.56033,118.862561 153.586997,121.276093 156.211935,124.883164 C157.812891,127.084293 160.7763,127.432754 162.828551,125.701784 C170.14853,119.526226 174.650056,110.308998 174.926403,100.239134 C178.222571,98.2058109 180.373364,94.2706878 180.484046,90.2524177 C180.499041,89.7059149 179.867085,89.4549619 179.535754,89.8737207" id="Fill-7" fill="#9FA9E3"></path>
            <path d="M81.362799,49.4146691 C80.5265805,49.5560609 79.8103385,49.9624736 79.0488792,50.6985638 C78.1957795,51.3437084 77.7430036,52.2957941 76.3087109,53.4219551 C75.9120045,53.6507399 75.4429504,53.8731301 74.8557284,53.7658428 C74.2787557,53.6720553 73.7693075,53.1697235 73.5124732,52.6986542 C73.0018192,51.7202796 72.944544,50.7973249 73.0494481,49.9155799 C73.5383978,50.5472248 74.0261417,51.1660805 74.4391264,51.2932621 C74.8569342,51.380655 74.6688303,51.0850821 74.928679,50.8072721 C75.2837855,50.0519981 76.1284446,48.3616908 77.2413931,47.3804741 C78.3489154,46.3843367 79.9924134,45.6965614 81.5641667,46.3900208 C83.1214504,47.0237972 84.2241496,48.6707634 84.532833,50.4264378 C83.2890559,49.6541116 82.2038407,49.3095134 81.362799,49.4146691" id="Fill-10" fill="#FFFFFF"></path>
            <path d="M122.284175,76.3113261 C123.120884,76.4532878 123.836482,76.8592213 124.598311,77.5951198 C125.45195,78.2412371 125.904489,79.1927637 127.33829,80.3192485 C127.735483,80.5479219 128.204301,80.7704563 128.791625,80.6622585 C129.368531,80.5694079 129.877719,80.0675544 130.134918,79.5948605 C130.645408,78.6172436 130.702708,77.6948766 130.597875,76.811645 C130.108221,77.4447172 129.621172,78.0624421 129.208352,78.1898239 C128.790323,78.277303 128.97785,77.9818693 128.718047,77.7040849 C128.363178,76.9490025 127.518655,75.2585079 126.405864,74.2778216 C125.298282,73.281788 123.654164,72.5934659 122.082974,73.2863922 C120.525458,73.9202317 119.423085,75.5677541 119.114447,77.3234743 C120.358116,76.5507425 121.443559,76.2061978 122.284175,76.3113261" id="Fill-12" fill="#FFFFFF"></path>
        </g>
    </g>
</svg>