<?xml version="1.0" encoding="UTF-8"?>
<svg width="24px" height="24px" viewBox="0 0 24 24" version="1.1" xmlns="http://www.w3.org/2000/svg" xmlns:xlink="http://www.w3.org/1999/xlink">
    <!-- Generator: Sketch 46.2 (44496) - http://www.bohemiancoding.com/sketch -->
    <title>Atoms/Icons/Comments</title>
    <desc>Created with Sketch.</desc>
    <defs>
        <path d="M5.17157288,18 L3.99895656,18 C2.34436453,18 1,16.6505424 1,14.9975267 L1,5.00247329 C1,3.34626346 2.33833038,2 3.99339768,2 L20.0066023,2 C21.6593681,2 23,3.35063365 23,5.00247329 L23,14.9975267 C23,16.6547985 21.659219,18 20.0024554,18 L12.8284272,18 L10.4142136,20.4142136 L9.70710679,21.1213204 C9.3165825,21.5118447 8.6834175,21.5118447 8.29289321,21.1213204 L7.58578644,20.4142136 L5.17157288,18 Z M11.7071068,16.2928932 C11.8946432,16.1053568 12.1489971,16 12.4142136,16 L20.0024554,16 C20.5531732,16 21,15.5517 21,14.9975267 L21,5.00247329 C21,4.45188913 20.5514572,4 20.0066023,4 L3.99339768,4 C3.44555453,4 3,4.4481956 3,5.00247329 L3,14.9975267 C3,15.5476623 3.45063049,16 3.99895656,16 L5.58578644,16 C5.85100293,16 6.10535685,16.1053568 6.29289322,16.2928932 L9,19 L11.7071068,16.2928932 Z M7,7 L17,7 L17,7 C17.5522847,7 18,7.44771525 18,8 L18,8 L18,8 C18,8.55228475 17.5522847,9 17,9 L7,9 L7,9 C6.44771525,9 6,8.55228475 6,8 L6,8 L6,8 C6,7.44771525 6.44771525,7 7,7 Z M7,11 L17,11 L17,11 C17.5522847,11 18,11.4477153 18,12 L18,12 L18,12 C18,12.5522847 17.5522847,13 17,13 L7,13 L7,13 C6.44771525,13 6,12.5522847 6,12 L6,12 L6,12 C6,11.4477153 6.44771525,11 7,11 Z" id="path-1"></path>
    </defs>
    <g id="Symbols" stroke="none" stroke-width="1" fill="none" fill-rule="evenodd">
        <g id="Atoms/Icons/Comments">
            <mask id="mask-2" fill="white">
                <use xlink:href="#path-1"></use>
            </mask>
            <use id="Combined-Shape" fill="#333333" fill-rule="nonzero" xlink:href="#path-1"></use>
            <g id="Atoms/Colors/Black" mask="url(#mask-2)" fill="#333333">
                <rect id="Rectangle-5-Copy" x="0" y="0" width="24" height="24"></rect>
            </g>
        </g>
    </g>
</svg>