<?xml version="1.0" encoding="UTF-8" standalone="no"?>
<svg width="24px" height="24px" viewBox="0 0 24 24" version="1.1" xmlns="http://www.w3.org/2000/svg" xmlns:xlink="http://www.w3.org/1999/xlink">
    <!-- Generator: Sketch 46.2 (44496) - http://www.bohemiancoding.com/sketch -->
    <title>Atoms/Icons/Date</title>
    <desc>Created with Sketch.</desc>
    <defs>
        <path d="M1,4.99420208 C1,3.34054993 2.34308127,2 4.00138694,2 L19.9986131,2 C21.6562333,2 23,3.34331197 23,4.99420208 L23,19.0057979 C23,20.6594501 21.6569187,22 19.9986131,22 L4.00138694,22 C2.3437667,22 1,20.656688 1,19.0057979 L1,4.99420208 Z M3,7.00684547 L3,18.9931545 C3,19.5500512 3.44475929,20 3.99339768,20 L20.0066023,20 C20.5550537,20 21,19.5492199 21,18.9931545 L21,7.00684547 C21,6.44994876 20.5552407,6 20.0066023,6 L3.99339768,6 C3.44494629,6 3,6.45078007 3,7.00684547 Z M9,16 C9,16.5522847 9.44771525,17 10,17 C10.5522847,17 11,16.5522847 11,16 L11,10 C11,9.10909515 9.92285808,8.66292836 9.29289322,9.29289322 L7.29289322,11.2928932 C6.90236893,11.6834175 6.90236893,12.3165825 7.29289322,12.7071068 C7.68341751,13.0976311 8.31658249,13.0976311 8.70710678,12.7071068 L9,12.4142136 L9,16 Z M14,16 C14,16.5522847 14.4477153,17 15,17 C15.5522847,17 16,16.5522847 16,16 L16,10 C16,9.10909515 14.9228581,8.66292836 14.2928932,9.29289322 L12.2928932,11.2928932 C11.9023689,11.6834175 11.9023689,12.3165825 12.2928932,12.7071068 C12.6834175,13.0976311 13.3165825,13.0976311 13.7071068,12.7071068 L14,12.4142136 L14,16 Z" id="path-1"></path>
    </defs>
    <g id="Symbols" stroke="none" stroke-width="1" fill="none" fill-rule="evenodd">
        <g id="Atoms/Icons/Date">
            <mask id="mask-2" fill="white">
                <use xlink:href="#path-1"></use>
            </mask>
            <use id="Combined-Shape" fill="#333333" fill-rule="nonzero" xlink:href="#path-1"></use>
            <g id="Atoms/Colors/Black" mask="url(#mask-2)" fill="#333333">
                <rect id="Rectangle-5-Copy" x="0" y="0" width="24" height="24"></rect>
            </g>
        </g>
    </g>
</svg>