<?xml version="1.0" encoding="UTF-8" standalone="no"?>
<svg width="24px" height="24px" viewBox="0 0 24 24" version="1.1" xmlns="http://www.w3.org/2000/svg" xmlns:xlink="http://www.w3.org/1999/xlink">
    <!-- Generator: Sketch 46.2 (44496) - http://www.bohemiancoding.com/sketch -->
    <title>Atoms/Icons/Delete</title>
    <desc>Created with Sketch.</desc>
    <defs>
        <path d="M8,4 L8,2.99895656 C8,1.89821202 8.89544727,1 9.99077797,1 L14.009222,1 C15.111407,1 16,1.89308592 16,2.99895656 L16,4 L21,4 C21.5522847,4 22,4.44771525 22,5 C22,5.55228475 21.5522847,6 21,6 L3,6 C2.44771525,6 2,5.55228475 2,5 C2,4.44771525 2.44771525,4 3,4 L3,4 L8,4 Z M9.99920857,4 L14,4 L14,3 L10.0000605,3 C9.99912535,3 9.99884139,3.33333333 9.99920857,4 Z M4,7 L6,7 L6,20.0081158 C6,20.5547653 6.448205,21 7.00585866,21 L16.9941413,21 C17.5505411,21 18,20.5534247 18,20.0081158 L18,7 L20,7 L20,20.0081158 C20,21.6608861 18.6522393,23 16.9941413,23 L7.00585866,23 C5.3466014,23 4,21.6623225 4,20.0081158 L4,7 Z M9,10.9970301 C9,10.4463856 9.44386482,10 10,10 C10.5522847,10 11,10.4530363 11,10.9970301 L11,17.0029699 C11,17.5536144 10.5561352,18 10,18 C9.44771525,18 9,17.5469637 9,17.0029699 L9,10.9970301 Z M13,10.9970301 C13,10.4463856 13.4438648,10 14,10 C14.5522847,10 15,10.4530363 15,10.9970301 L15,17.0029699 C15,17.5536144 14.5561352,18 14,18 C13.4477153,18 13,17.5469637 13,17.0029699 L13,10.9970301 Z" id="path-1"></path>
    </defs>
    <g id="Symbols" stroke="none" stroke-width="1" fill="none" fill-rule="evenodd">
        <g id="Atoms/Icons/Delete">
            <mask id="mask-2" fill="white">
                <use xlink:href="#path-1"></use>
            </mask>
            <use id="Combined-Shape" fill="#333333" fill-rule="nonzero" xlink:href="#path-1"></use>
            <g id="Atoms/Colors/Black" mask="url(#mask-2)" fill="#333333">
                <rect id="Rectangle-5-Copy" x="0" y="0" width="24" height="24"></rect>
            </g>
        </g>
    </g>
</svg>