<?xml version="1.0" encoding="UTF-8" standalone="no"?>
<svg width="24px" height="24px" viewBox="0 0 24 24" version="1.1" xmlns="http://www.w3.org/2000/svg" xmlns:xlink="http://www.w3.org/1999/xlink">
    <!-- Generator: Sketch 46.2 (44496) - http://www.bohemiancoding.com/sketch -->
    <title>Atoms/Icons/Heart</title>
    <desc>Created with Sketch.</desc>
    <defs>
        <path d="M12.8331864,5.9216295 L11.1931801,5.93388647 L12.0051892,4.75397111 L12.8331864,5.9216295 Z M12.3062953,4.31643946 C14.3761097,1.65522838 18.1665794,1.22202841 20.7587406,3.35502368 C23.3342426,5.47431066 23.7502452,9.32533699 21.6395947,12.0333771 L12.0189003,22.4742316 L11.283385,21.6791359 L2.30647936,11.969682 C0.249782885,9.32533699 0.665785518,5.47431067 3.2412875,3.35502368 C5.83344872,1.22202841 9.6239184,1.65522838 11.7201041,4.35193838 L12.0051892,4.75397111 L12.3062953,4.31643946 Z M20.1148396,10.7418069 C21.5081751,8.95036131 21.2249769,6.32873399 19.4879389,4.89938858 C17.7675601,3.48375143 15.265222,3.7697352 13.9199303,5.49655874 L12.0305187,8.24727481 L11.2017347,7.07850683 L10.1150237,5.54431463 C8.73480618,3.7697352 6.23246798,3.48375143 4.51208925,4.89938857 C2.77505128,6.32873399 2.49185304,8.95036133 3.82990958,10.6766768 L12.0162183,19.526118 L20.1148396,10.7418069 Z" id="path-1"></path>
    </defs>
    <g id="Symbols" stroke="none" stroke-width="1" fill="none" fill-rule="evenodd">
        <g id="Atoms/Icons/Heart">
            <mask id="mask-2" fill="white">
                <use xlink:href="#path-1"></use>
            </mask>
            <use id="Path-2" fill="#333333" fill-rule="nonzero" xlink:href="#path-1"></use>
            <g id="Atoms/Colors/Black" mask="url(#mask-2)" fill="#333333">
                <rect id="Rectangle-5-Copy" x="0" y="0" width="24" height="24"></rect>
            </g>
        </g>
    </g>
</svg>