<?xml version="1.0" encoding="UTF-8" standalone="no"?>
<svg width="24px" height="24px" viewBox="0 0 24 24" version="1.1" xmlns="http://www.w3.org/2000/svg" xmlns:xlink="http://www.w3.org/1999/xlink">
    <!-- Generator: Sketch 46.2 (44496) - http://www.bohemiancoding.com/sketch -->
    <title>Atoms/Icons/Home</title>
    <desc>Created with Sketch.</desc>
    <defs>
        <path d="M22.0000057,11.4738842 L22.000006,20.0170446 C22.000006,21.1219643 21.1020774,22.0138783 19.9970758,22.0138781 L15.0029302,22.0138779 C13.8872666,22.0138779 13,21.117976 13,20.0089602 C13.0016036,16.6696534 12.9984806,15 12.9906311,15 C11.6635437,14.9992781 11,15.0009174 11,15.0049177 L11,20.0089602 C11,21.1248419 10.1058595,22.0138779 8.99707071,22.0138779 L4.00292951,22.0138781 C2.88908544,22.0138783 2,21.123361 2,20.0170446 L2,11.4738791 L1.63323779,11.7739573 C1.20579298,12.1236849 0.575770275,12.0606826 0.226042701,11.6332378 C-0.123684874,11.205793 -0.0606826036,10.5757703 0.36676221,10.2260427 L11.3667622,1.2260427 C11.7351281,0.924652415 12.264872,0.924652435 12.6332378,1.22604275 L14.3519878,2.63229294 L18.1332378,5.72604325 C20.1957376,7.41354318 20.1957376,7.41354318 21.9144875,8.81979301 C23.2894873,9.94479278 23.2894873,9.94479278 23.6332378,10.2260427 C24.0606826,10.5757703 24.1236849,11.205793 23.7739573,11.6332378 C23.4242297,12.0606826 22.794207,12.1236849 22.3667626,11.7739576 C22.2262045,11.6589557 22.14312,11.5909776 22.0000057,11.4738842 Z M20.0116316,9.84703288 C18.8880705,8.92775559 18.6377873,8.72297841 16.8667622,7.2739578 L13.0855122,4.18020746 L11.3667622,2.77395725 L12.6332378,2.7739573 L3.98837335,9.8470282 C3.9960289,9.89690021 4,9.94798635 4,10 C4.00110931,16.6759187 4.00208574,20.0138781 4.00292929,20.0138781 C7.33430976,20.0164267 9,20.0147874 9,20.0089602 L9,15.0049177 C9,13.8949978 9.89369812,13 11.0093689,13 L12.9906311,13 C14.1015829,13 15,13.8875893 15,15.0049177 C14.9974637,18.3442245 14.9984404,20.0138779 15.0029302,20.0138779 L20.000006,20.0150153 L20.0000057,10 C20.0000057,9.947988 20.0039765,9.89690341 20.0116316,9.84703288 Z" id="path-1"></path>
    </defs>
    <g id="Symbols" stroke="none" stroke-width="1" fill="none" fill-rule="evenodd">
        <g id="Atoms/Icons/Home">
            <mask id="mask-2" fill="white">
                <use xlink:href="#path-1"></use>
            </mask>
            <use id="Combined-Shape" fill="#333333" fill-rule="nonzero" xlink:href="#path-1"></use>
            <g id="Atoms/Colors/Black" mask="url(#mask-2)" fill="#333333">
                <rect id="Rectangle-5-Copy" x="0" y="0" width="24" height="24"></rect>
            </g>
        </g>
    </g>
</svg>