<?xml version="1.0" encoding="UTF-8" standalone="no"?>
<svg width="24px" height="24px" viewBox="0 0 24 24" version="1.1" xmlns="http://www.w3.org/2000/svg" xmlns:xlink="http://www.w3.org/1999/xlink">
    <!-- Generator: Sketch 46.2 (44496) - http://www.bohemiancoding.com/sketch -->
    <title>Atoms/Icons/Location</title>
    <desc>Created with Sketch.</desc>
    <defs>
        <path d="M12.7071068,23.7071068 C12.3165825,24.0976311 11.6834175,24.0976311 11.2928932,23.7071068 C11.2244005,23.638614 11.1011589,23.5122915 10.9309437,23.3329576 C10.6502161,23.0371909 10.3381781,22.6981497 10.0025907,22.3206138 C9.04469651,21.2429829 8.08697238,20.0697708 7.19126392,18.8381717 C5.7664544,16.8790586 4.63443333,14.9586657 3.90352331,13.1313907 C3.31567329,11.6617656 3,10.280695 3,9 C3,4.02943725 7.02943725,0 12,0 C16.9705627,0 21,4.02943725 21,9 C21,10.280695 20.6843267,11.6617656 20.0964767,13.1313907 C19.3655667,14.9586657 18.2335456,16.8790586 16.8087361,18.8381717 C15.9130276,20.0697708 14.9553035,21.2429829 13.9974093,22.3206138 C13.6618219,22.6981497 13.3497839,23.0371909 13.0690563,23.3329576 C12.8988411,23.5122915 12.7755995,23.638614 12.7071068,23.7071068 Z M12.5025907,20.9918862 C13.4196965,19.9601421 14.3369724,18.8364792 15.1912639,17.6618283 C16.5264544,15.8259414 17.5784333,14.0413343 18.2395233,12.3886093 C18.7396733,11.1382344 19,9.99930501 19,9 C19,5.13400675 15.8659933,2 12,2 C8.13400675,2 5,5.13400675 5,9 C5,9.99930501 5.26032671,11.1382344 5.76047669,12.3886093 C6.42156667,14.0413343 7.4735456,15.8259414 8.80873608,17.6618283 C9.66302762,18.8364792 10.5803035,19.9601421 11.4974093,20.9918862 C11.6723037,21.1886423 11.8402592,21.3741904 12,21.5477213 C12.1597408,21.3741904 12.3276963,21.1886423 12.5025907,20.9918862 Z M12,13 C9.790861,13 8,11.209139 8,9 C8,6.790861 9.790861,5 12,5 C14.209139,5 16,6.790861 16,9 C16,11.209139 14.209139,13 12,13 Z M12,11 C13.1045695,11 14,10.1045695 14,9 C14,7.8954305 13.1045695,7 12,7 C10.8954305,7 10,7.8954305 10,9 C10,10.1045695 10.8954305,11 12,11 Z" id="path-1"></path>
    </defs>
    <g id="Symbols" stroke="none" stroke-width="1" fill="none" fill-rule="evenodd">
        <g id="Atoms/Icons/Location">
            <mask id="mask-2" fill="white">
                <use xlink:href="#path-1"></use>
            </mask>
            <use id="Combined-Shape" fill="#333333" fill-rule="nonzero" xlink:href="#path-1"></use>
            <g id="Atoms/Colors/Black" mask="url(#mask-2)" fill="#333333">
                <rect id="Rectangle-5-Copy" x="0" y="0" width="24" height="24"></rect>
            </g>
        </g>
    </g>
</svg>