<?xml version="1.0" encoding="UTF-8" standalone="no"?>
<svg width="24px" height="24px" viewBox="0 0 24 24" version="1.1" xmlns="http://www.w3.org/2000/svg" xmlns:xlink="http://www.w3.org/1999/xlink">
    <!-- Generator: Sketch 46.2 (44496) - http://www.bohemiancoding.com/sketch -->
    <title>Atoms/Icons/More</title>
    <desc>Created with Sketch.</desc>
    <defs>
        <path d="M10,12 C10,10.8954305 10.8877296,10 12,10 C13.1045695,10 14,10.8877296 14,12 C14,13.1045695 13.1122704,14 12,14 C10.8954305,14 10,13.1122704 10,12 Z M17,12 C17,10.8954305 17.8877296,10 19,10 C20.1045695,10 21,10.8877296 21,12 C21,13.1045695 20.1122704,14 19,14 C17.8954305,14 17,13.1122704 17,12 Z M3,12 C3,10.8954305 3.88772964,10 5,10 C6.1045695,10 7,10.8877296 7,12 C7,13.1045695 6.11227036,14 5,14 C3.8954305,14 3,13.1122704 3,12 Z" id="path-1"></path>
    </defs>
    <g id="Symbols" stroke="none" stroke-width="1" fill="none" fill-rule="evenodd">
        <g id="Atoms/Icons/More">
            <mask id="mask-2" fill="white">
                <use xlink:href="#path-1"></use>
            </mask>
            <use id="Mask" fill="#333333" fill-rule="nonzero" xlink:href="#path-1"></use>
            <g id="Atoms/Colors/Black" mask="url(#mask-2)" fill="#333333">
                <rect id="Rectangle-5-Copy" x="0" y="0" width="24" height="24"></rect>
            </g>
        </g>
    </g>
</svg>