<?xml version="1.0" encoding="utf-8"?>
<!-- Generator: Adobe Illustrator 21.0.0, SVG Export Plug-In . SVG Version: 6.00 Build 0)  -->
<svg version="1.1" id="Layer_1" xmlns="http://www.w3.org/2000/svg" xmlns:xlink="http://www.w3.org/1999/xlink" x="0px" y="0px"
	 viewBox="0 0 24 24" style="enable-background:new 0 0 24 24;" xml:space="preserve">
<path d="M12,18.5c3.6,0,6.5-2.9,6.5-6.5S15.6,5.5,12,5.5S5.5,8.4,5.5,12S8.4,18.5,12,18.5z M12,19.5c-4.1,0-7.5-3.4-7.5-7.5
	S7.9,4.5,12,4.5s7.5,3.4,7.5,7.5S16.1,19.5,12,19.5z M12,21c5,0,9-4,9-9s-4-9-9-9s-9,4-9,9S7,21,12,21z M12,23C5.9,23,1,18.1,1,12
	S5.9,1,12,1s11,4.9,11,11S18.1,23,12,23z M10.3,15.9c-0.6,0.3-1.2-0.2-1.1-0.8l0.3-1.9l-1.3-1.4c-0.4-0.5-0.2-1.3,0.4-1.3l1.8-0.3
	l0.8-1.7c0.3-0.6,1.1-0.6,1.4,0l0.8,1.7l1.8,0.3c0.6,0.1,0.9,0.9,0.4,1.3l-1.3,1.4l0.3,1.9c0.1,0.6-0.5,1.1-1.1,0.8L12,15L10.3,15.9
	z"/>
</svg>
