<?xml version="1.0" encoding="UTF-8"?>
<svg width="24px" height="24px" viewBox="0 0 24 24" version="1.1" xmlns="http://www.w3.org/2000/svg" xmlns:xlink="http://www.w3.org/1999/xlink">
    <!-- Generator: Sketch 47 (45396) - http://www.bohemiancoding.com/sketch -->
    <title>twitter</title>
    <desc>Created with Sketch.</desc>
    <defs></defs>
    <g id="Landing-Page" stroke="none" stroke-width="1" fill="none" fill-rule="evenodd">
        <g id="icon-twitter" fill="#FFFFFF">
            <rect id="Rectangle-15-Copy" fill-opacity="0" x="0" y="0" width="24" height="24"></rect>
            <path d="M20.994375,6.75885714 C20.33175,7.05828571 19.62075,7.25942857 18.87375,7.35085714 C19.6365,6.88685714 20.220375,6.152 20.497125,5.27542857 C19.78275,5.70628571 18.991875,6.01828571 18.1515,6.18628571 C17.47875,5.45485714 16.518,5 15.457125,5 C13.416375,5 11.76375,6.68114286 11.76375,8.752 C11.76375,9.04685714 11.796375,9.33257143 11.859375,9.60685714 C8.790375,9.45028571 6.069,7.95771429 4.2465,5.68685714 C3.930375,6.24114286 3.748125,6.88571429 3.748125,7.57371429 C3.748125,8.87542857 4.600875,10.0228571 5.592,10.696 C4.985625,10.6765714 4.119375,10.5062857 4.119375,10.2251429 C4.119375,10.2434286 4.119375,10.2582857 4.119375,10.2742857 C4.119375,12.0914286 5.1915,13.6068571 6.880125,13.9531429 C6.569625,14.0377143 6.144375,14.0845714 5.806875,14.0845714 C5.568375,14.0845714 5.28825,14.0605714 5.061,14.0148571 C5.53125,15.5062857 6.87,16.5908571 8.4855,16.6217143 C7.222125,17.6262857 5.61675,18.2262857 3.887625,18.2262857 C3.588375,18.2262857 3.289125,18.208 3,18.1748571 C4.634625,19.2377143 6.571875,19.8605714 8.657625,19.8605714 C15.4515,19.8605714 19.162875,14.144 19.162875,9.18628571 C19.162875,9.02285714 19.158375,8.86057143 19.1505,8.69942857 C19.873875,8.17142857 20.499375,7.51085714 20.994375,6.75885714 Z" id="Shape" fill-rule="nonzero"></path>
        </g>
    </g>
</svg>