<?xml version="1.0" encoding="UTF-8" standalone="no"?>
<svg width="24px" height="24px" viewBox="0 0 24 24" version="1.1" xmlns="http://www.w3.org/2000/svg" xmlns:xlink="http://www.w3.org/1999/xlink">
    <!-- Generator: Sketch 46.2 (44496) - http://www.bohemiancoding.com/sketch -->
    <title>Atoms/Icons/Yes Vaccines</title>
    <desc>Created with Sketch.</desc>
    <defs>
        <path d="M12,0 C18.6167619,0 24,5.3832381 24,12.000381 C24,18.6171429 18.6167619,24 12,24 C5.3832381,24 0,18.6167619 0,12 C0,5.3832381 5.3832381,0 12,0 Z M12,1 C5.93463492,1 1,5.93463492 1,12 C1,18.0653651 5.93463492,23 12,23 C18.0653651,23 23,18.0657143 23,12.0003492 C23,5.93463492 18.0653651,1 12,1 Z M4.11744681,17.5131915 C4.26621277,17.3642553 4.50740426,17.3642553 4.65617021,17.5131915 L5.30093617,18.157617 L7.23131915,16.2444255 L5.50314894,14.5160851 C5.50246809,14.5157447 5.50212766,14.5155745 5.50144681,14.5150638 C5.50110638,14.5145532 5.50076596,14.5140426 5.50008511,14.5135319 L4.48544681,13.4988936 C4.33668085,13.3502979 4.33668085,13.1091064 4.48544681,12.9601702 C4.63438298,12.8114043 4.87540426,12.8114043 5.02417021,12.9601702 L5.77089362,13.7067234 L12.5291915,6.94757447 C12.672,6.80476596 12.9251064,6.80476596 13.0679149,6.94757447 L13.965617,7.84561702 L15.1584681,6.65242553 C15.2297872,6.58110638 15.3268085,6.54076596 15.4279149,6.54076596 C15.5288511,6.54076596 15.6258723,6.58093617 15.6971915,6.65242553 L16.2604255,7.21565957 L19.3428085,4.11302128 C19.4914043,3.96391489 19.7324255,3.96289362 19.8817021,4.11131915 C20.0309787,4.25957447 20.0316596,4.50076596 19.8834043,4.65004255 L16.7993191,7.7547234 L17.3533617,8.30876596 C17.4248511,8.38025532 17.4650213,8.47710638 17.4650213,8.57821277 C17.4650213,8.67931915 17.4248511,8.77617021 17.3533617,8.84765957 L16.1603404,10.0405106 L17.0577021,10.9382128 C17.2066383,11.0869787 17.2066383,11.3281702 17.0577021,11.4769362 L14.443234,14.0914043 C14.443234,14.0915745 14.4430638,14.0915745 14.4430638,14.0917447 C14.4428936,14.0919149 14.4428936,14.0919149 14.4427234,14.0919149 L13.0657021,15.4691064 L13.0657021,15.4692766 L13.0653617,15.4694468 L11.6886809,16.8461277 C11.6886809,16.8462979 11.6886809,16.8462979 11.6886809,16.8462979 L11.6883404,16.8462979 L10.2997447,18.2350638 L11.0462979,18.981617 C11.1950638,19.1302128 11.1950638,19.3714043 11.0462979,19.5201702 C10.9717447,19.5947234 10.8745532,19.6318298 10.7770213,19.6318298 C10.6794894,19.6318298 10.5819574,19.5945532 10.5075745,19.5201702 L9.49531915,18.5080851 C9.49395745,18.5068936 9.49259574,18.5060426 9.49140426,18.5048511 C9.49038298,18.5036596 9.4893617,18.5021277 9.48834043,18.5009362 L7.77021277,16.7831489 L5.83982979,18.6961702 L6.49293617,19.3492766 C6.64170213,19.4978723 6.64170213,19.7390638 6.49293617,19.888 C6.41855319,19.962383 6.3213617,19.9994894 6.22382979,19.9994894 C6.12629787,19.9994894 6.02876596,19.9622128 5.95421277,19.888 L5.0306383,18.9644255 C5.03029787,18.9639149 5.02961702,18.9637447 5.0292766,18.963234 C5.02859574,18.9628936 5.02859574,18.962383 5.02825532,18.9618723 L4.11744681,18.0515745 C3.96868085,17.9031489 3.96868085,17.6619574 4.11744681,17.5131915 Z M16.5451915,8.57804255 L15.4280851,7.46076596 L14.5046809,8.38451064 L15.621617,9.50161702 L16.5451915,8.57804255 Z M10.8805106,16.5768511 L9.5627234,15.2588936 C9.41395745,15.1099574 9.41395745,14.868766 9.5627234,14.7201702 C9.71148936,14.5714043 9.95268085,14.5714043 10.1014468,14.7201702 L11.419234,16.0381277 L12.2575319,15.1998298 L10.9397447,13.8820426 C10.7909787,13.7332766 10.7909787,13.4920851 10.9397447,13.3433191 C11.0885106,13.1945532 11.3295319,13.1945532 11.4784681,13.3433191 L12.7962553,14.6611064 L13.6348936,13.8222979 L12.3171064,12.5045106 C12.1681702,12.3559149 12.1681702,12.1145532 12.316766,11.9657872 C12.4655319,11.8170213 12.7068936,11.8170213 12.8558298,11.9657872 L14.173617,13.2835745 L16.2497021,11.2074894 L15.3523404,10.3101277 C15.3523404,10.3099574 15.3521702,10.3099574 15.352,10.3097872 C15.3518298,10.309617 15.3518298,10.309617 15.3516596,10.3094468 L13.699234,8.65651064 C13.6982128,8.65565957 13.6971915,8.65497872 13.6961702,8.65412766 C13.6954894,8.6532766 13.6949787,8.65225532 13.6939574,8.65123404 L12.7988085,7.75574468 L6.30961702,14.2452766 L8.0386383,15.9739574 C8.03965957,15.9751489 8.0413617,15.976 8.04221277,15.9771915 C8.04306383,15.978383 8.04425532,15.9795745 8.0452766,15.980766 L9.76119149,17.6965106 L10.8805106,16.5768511 Z" id="path-1"></path>
    </defs>
    <g id="Symbols" stroke="none" stroke-width="1" fill="none" fill-rule="evenodd">
        <g id="Atoms/Icons/Yes-Vaccines">
            <mask id="mask-2" fill="white">
                <use xlink:href="#path-1"></use>
            </mask>
            <use id="Combined-Shape" fill="#333333" fill-rule="nonzero" xlink:href="#path-1"></use>
            <g id="Atoms/Colors/Black" mask="url(#mask-2)" fill="#333333">
                <rect id="Rectangle-5-Copy" x="0" y="0" width="24" height="24"></rect>
            </g>
        </g>
    </g>
</svg>