<?xml version="1.0" encoding="UTF-8"?>
<svg width="110px" height="110px" viewBox="0 0 110 110" version="1.1" xmlns="http://www.w3.org/2000/svg" xmlns:xlink="http://www.w3.org/1999/xlink">
    <!-- Generator: Sketch 46.2 (44496) - http://www.bohemiancoding.com/sketch -->
    <title>graphic-3</title>
    <desc>Created with Sketch.</desc>
    <defs></defs>
    <g id="Email" stroke="none" stroke-width="1" fill="none" fill-rule="evenodd">
        <g id="Artboard" transform="translate(-91.000000, -981.000000)">
            <g id="Group-27" transform="translate(120.000000, 995.000000)">
                <g id="coin-star" transform="translate(9.000000, 50.000000)">
                    <g id="Invisible_Shape">
                        <rect id="Rectangle-path" x="0" y="0" width="32" height="32"></rect>
                    </g>
                    <g id="Outline_Icons" stroke-width="1.75" stroke="#5F70D0" stroke-linejoin="round">
                        <g id="Group">
                            <polygon id="Shape" points="16.016 7.33333333 18.016 14 24.016 14 19.3493333 17.3333333 21.3493333 23.3333333 16.016 19.3333333 10.6826667 23.3333333 12.6826667 17.3333333 8.016 14 14.016 14"></polygon>
                            <circle id="Oval" stroke-linecap="round" cx="16.016" cy="16" r="15.3333333"></circle>
                            <circle id="Oval" stroke-linecap="round" cx="16.016" cy="16" r="11.3333333"></circle>
                        </g>
                    </g>
                </g>
                <g id="coin-star-copy" transform="translate(0.000000, 20.000000)">
                    <g id="Invisible_Shape">
                        <rect id="Rectangle-path" x="0" y="0" width="24" height="24"></rect>
                    </g>
                    <g id="Outline_Icons" stroke-width="1.5" stroke="#5F70D0" stroke-linejoin="round">
                        <g id="Group">
                            <polygon id="Shape" points="12.012 5.5 13.512 10.5 18.012 10.5 14.512 13 16.012 17.5 12.012 14.5 8.012 17.5 9.512 13 6.012 10.5 10.512 10.5"></polygon>
                            <circle id="Oval" stroke-linecap="round" cx="12.012" cy="12" r="11.5"></circle>
                            <circle id="Oval" stroke-linecap="round" cx="12.012" cy="12" r="8.5"></circle>
                        </g>
                    </g>
                </g>
                <g id="coin-star-copy-3" transform="translate(28.000000, 27.000000)">
                    <g id="Invisible_Shape">
                        <rect id="Rectangle-path" x="0" y="0" width="24" height="24"></rect>
                    </g>
                    <g id="Outline_Icons" stroke-width="1.5" stroke="#7F8DDA" stroke-linejoin="round">
                        <g id="Group">
                            <polygon id="Shape" points="12.012 5.5 13.512 10.5 18.012 10.5 14.512 13 16.012 17.5 12.012 14.5 8.012 17.5 9.512 13 6.012 10.5 10.512 10.5"></polygon>
                            <circle id="Oval" stroke-linecap="round" cx="12.012" cy="12" r="11.5"></circle>
                            <circle id="Oval" stroke-linecap="round" cx="12.012" cy="12" r="8.5"></circle>
                        </g>
                    </g>
                </g>
                <g id="coin-star-copy-2" transform="translate(18.000000, 0.000000)">
                    <g id="Invisible_Shape">
                        <rect id="Rectangle-path" x="0" y="0" width="20" height="20"></rect>
                    </g>
                    <g id="Outline_Icons" stroke-width="1.25" stroke="#9FA9E3" stroke-linejoin="round">
                        <g id="Group">
                            <polygon id="Shape" points="10.01 4.58333333 11.26 8.75 15.01 8.75 12.0933333 10.8333333 13.3433333 14.5833333 10.01 12.0833333 6.67666667 14.5833333 7.92666667 10.8333333 5.01 8.75 8.76 8.75"></polygon>
                            <circle id="Oval" stroke-linecap="round" cx="10.01" cy="10" r="9.58333333"></circle>
                            <circle id="Oval" stroke-linecap="round" cx="10.01" cy="10" r="7.08333333"></circle>
                        </g>
                    </g>
                </g>
            </g>
        </g>
    </g>
</svg>