<?xml version="1.0" encoding="UTF-8"?>
<svg width="159px" height="41px" viewBox="0 0 159 41" version="1.1" xmlns="http://www.w3.org/2000/svg" xmlns:xlink="http://www.w3.org/1999/xlink">
    <!-- Generator: Sketch 46.2 (44496) - http://www.bohemiancoding.com/sketch -->
    <title>Group 8</title>
    <desc>Created with Sketch.</desc>
    <defs>
        <polygon id="path-1" points="8.59467286e-05 0.0709383716 37.9534524 0.0709383716 37.9534524 39.3846335 8.59467286e-05 39.3846335"></polygon>
        <polygon id="path-3" points="25.8113798 29.5384615 0.0404730087 29.5384615 0.0404730087 0.233719453 25.8113798 0.233719453 25.8113798 29.5384615"></polygon>
    </defs>
    <g id="Landing-Page" stroke="none" stroke-width="1" fill="none" fill-rule="evenodd">
        <g id="Wana-Landing-Page---v3" transform="translate(-149.000000, -5703.000000)">
            <g id="Footer" transform="translate(0.000000, 5569.000000)">
                <g id="Group-15" transform="translate(149.000000, 134.000000)">
                    <g id="Group-8">
                        <text id="wana-copy" font-family="MuseoSansRounded-900, Museo Sans Rounded" font-size="39.3846154" font-weight="bold" fill="#FFFFFF">
                            <tspan x="62.7692308" y="38.2307692">wana</tspan>
                        </text>
                        <g id="Group-7">
                            <g id="Group-6">
                                <mask id="mask-2" fill="white">
                                    <use xlink:href="#path-1"></use>
                                </mask>
                                <g id="Clip-5"></g>
                                <path d="M36.8310146,0.32585587 C36.7721352,0.172002519 36.6489595,0.0582247413 36.4878655,0.0718135852 C35.9358123,0.11902906 34.9136661,0.166014215 34.2615179,0.212769051 C34.0333014,0.229352047 33.8952881,0.468193252 33.9937345,0.678474854 C34.9925645,2.81676005 35.6491875,6.26372002 32.3825588,8.52154098 C28.9998199,10.8595131 24.2449557,10.2095518 20.2376243,9.94284193 C16.8073109,9.71459541 13.597442,9.25556887 10.9711856,12.0007457 C8.24012384,14.8560151 7.68430237,19.5671982 9.56797189,23.0452513 C10.6002454,24.9506836 12.3470792,26.3646143 14.3108247,27.1813269 C15.3449823,27.6113332 16.4467335,27.8552414 17.5626158,27.9075239 C18.1532938,27.9353925 18.7460915,27.9151244 19.3327658,27.8384281 C19.6483594,27.7969706 20.4036642,27.4528734 20.4575977,27.8423435 C16.4961922,29.4375356 11.6742055,27.9697101 9.04041254,24.6167205 C7.28345147,22.3793979 6.59032327,19.4184119 6.94571928,16.5997632 C6.6122264,16.9316534 6.28273732,17.2697623 5.98433656,17.6341276 C4.73797759,19.1560781 3.85572877,20.9627034 3.3413584,22.8720511 C3.24196999,23.2401015 2.87785983,23.4646629 2.51469174,23.3690803 C1.74384274,23.1663993 1.02292346,22.7633404 0.444492308,22.207119 C0.25725584,22.0270093 -0.0467973409,22.1863903 0.00619411206,22.4429661 C0.370304274,24.2042184 1.24289687,26.006007 2.81332802,26.5203102 C2.69180095,31.4876085 4.95983514,36.0686611 8.75873352,38.9999359 C9.60377056,39.6517398 10.7914857,39.4520529 11.4120745,38.5766089 C12.6306424,36.8584263 14.5691875,35.6960043 16.7380688,35.6441825 C18.3709121,35.6047978 19.9554743,36.8499045 20.9733812,38.3591874 C21.5854914,39.2661852 22.8459814,39.4313242 23.6592236,38.7067394 C27.0730507,35.6665234 29.8646405,32.1624443 32.1644695,27.9837596 C30.3295521,23.4538379 30.0568228,17.6143201 32.6190184,12.8372657 C32.9407354,12.8840205 33.5106879,12.7502049 33.8326405,12.7969598 C33.5759263,14.0155797 32.4477972,15.3049076 32.9560441,16.4864461 C33.3566594,17.4169364 34.1303347,18.1136525 34.9534686,18.6542121 C35.2631742,18.8575842 35.5846557,19.0351604 35.9120251,19.1977659 C37.3467981,14.5091541 39.1720593,6.46363725 36.8310146,0.32585587" id="Fill-4" fill="#9FA9E3" mask="url(#mask-2)"></path>
                            </g>
                            <g id="Group-9" transform="translate(32.000000, 11.076923)">
                                <mask id="mask-4" fill="white">
                                    <use xlink:href="#path-3"></use>
                                </mask>
                                <g id="Clip-8"></g>
                                <path d="M25.5075464,17.7107531 C25.2188929,18.0748994 24.8186206,18.3218603 24.3353204,18.4271818 C24.0505552,18.4889221 23.7655613,18.2840898 23.6930549,17.986284 C23.3483632,16.570859 22.7417792,15.2273433 21.8561481,14.103429 C21.6512087,13.8429095 21.4245402,13.6017594 21.1955845,13.3647253 C21.4396362,15.3769725 20.9636553,17.4909095 19.7566628,19.0879233 C17.9478894,21.4817493 14.6352359,22.5296383 11.9142993,21.3904706 C11.9508956,21.1127607 12.4701059,21.358511 12.6869391,21.3880494 C13.0897274,21.4427682 13.4970903,21.4572953 13.902852,21.4374416 C14.6693163,21.3999132 15.426174,21.22583 16.1363714,20.9188237 C17.4854034,20.3358023 18.6853054,19.3264101 19.3943592,17.9661881 C20.6882679,15.4832625 20.3067513,12.1199939 18.4305035,10.081598 C16.6265334,8.12189054 14.4216049,8.44947692 12.0654878,8.6124227 C9.31252934,8.80272787 6.26680027,8.98020076 3.94933805,7.08634956 C2.30044493,5.7389599 2.14559673,2.01856646 2.89993846,0.673840101 C2.98433873,0.522758134 2.8960501,0.337053216 2.73022301,0.326642119 C2.22885337,0.295650946 1.45392621,0.266112484 1.06165936,0.234394956 C0.953700204,0.225678689 0.85946467,0.302188146 0.833389789,0.413320555 C0.480006535,1.92631929 0.224747175,3.44972913 0.112670933,5.01090946 C-0.511067665,13.7073231 2.93561988,23.1431667 9.32991259,28.9845185 C10.0041999,29.6004681 11.0124286,29.4154895 11.5355273,28.6520898 C12.2976457,27.5395551 13.3516199,26.9325639 14.4694088,26.9604076 C15.9060433,26.9962411 17.195835,27.7693256 18.0366355,28.9247153 C18.5494415,29.6297644 19.4986587,29.7413811 20.1560201,29.1869296 C22.5007009,27.2088212 23.9425961,24.2564277 24.0311134,21.0309246 C25.0869174,20.3796257 25.7758432,19.1191566 25.8112958,17.8320545 C25.8160991,17.6570028 25.6136757,17.5766194 25.5075464,17.7107531" id="Fill-7" fill="#BFC6EC" mask="url(#mask-4)"></path>
                            </g>
                            <path d="M26.0615216,15.8281362 C25.7936703,15.8734258 25.564249,16.0036048 25.3203441,16.2393837 C25.0470856,16.4460316 24.9020558,16.7509965 24.442634,17.11172 C24.3155639,17.1850026 24.1653201,17.256237 23.9772255,17.2218715 C23.7924139,17.1918302 23.6292313,17.0309271 23.5469641,16.8800377 C23.3833952,16.5666521 23.3650492,16.2710181 23.3986513,15.9885842 C23.5552681,16.1909079 23.7114985,16.3891352 23.8437827,16.429873 C23.9776117,16.4578661 23.9173597,16.3631904 24.0005925,16.2742043 C24.1143375,16.0322806 24.3848924,15.4908541 24.7413837,15.1765581 C25.096137,14.8574828 25.6225699,14.6371798 26.1260221,14.8593035 C26.6248396,15.06231 26.9780479,15.5898539 27.0769231,16.1522184 C26.6785257,15.9048326 26.3309177,15.7944535 26.0615216,15.8281362" id="Fill-10" fill="#5F70D0"></path>
                            <path d="M39.1691498,24.4434717 C39.4371583,24.4889437 39.6663733,24.6189693 39.9103966,24.8546868 C40.1838278,25.0616462 40.3287817,25.3664321 40.7880461,25.7272593 C40.9152719,25.8005062 41.06544,25.8717868 41.2535674,25.8371297 C41.4383576,25.8073885 41.6014569,25.6466385 41.6838409,25.4952287 C41.8473573,25.1820858 41.8657112,24.8866402 41.8321319,24.60373 C41.6752896,24.806511 41.5192816,25.004376 41.3870502,25.045178 C41.2531502,25.0731986 41.3132175,24.9785675 41.2299993,24.8895897 C41.1163303,24.6477274 40.8458191,24.1062408 40.4893783,23.7921147 C40.134606,23.4730727 39.6079746,23.2525946 39.1047026,23.4745475 C38.6058106,23.6775742 38.2527069,24.2052962 38.1538462,24.7676753 C38.5522089,24.5201597 38.8998899,24.4097977 39.1691498,24.4434717" id="Fill-12" fill="#5F70D0"></path>
                        </g>
                    </g>
                </g>
            </g>
        </g>
    </g>
</svg>