<?xml version="1.0" encoding="UTF-8"?>
<svg width="131px" height="34px" viewBox="0 0 131 34" version="1.1" xmlns="http://www.w3.org/2000/svg" xmlns:xlink="http://www.w3.org/1999/xlink">
    <!-- Generator: Sketch 46.2 (44496) - http://www.bohemiancoding.com/sketch -->
    <title>Group 10</title>
    <desc>Created with Sketch.</desc>
    <defs></defs>
    <g id="Symbols" stroke="none" stroke-width="1" fill="none" fill-rule="evenodd">
        <g id="Group-10" transform="translate(-2.000000, 0.000000)">
            <rect id="Rectangle-14" x="0" y="0" width="135" height="40"></rect>
            <path d="M58.6276923,30.0088205 C58.9156923,31.0328205 59.5556923,31.5128205 60.5796923,31.5128205 L63.7156923,31.5128205 C64.7716923,31.5128205 65.4116923,31.0008205 65.6676923,29.9768205 L67.1396923,23.8968205 C67.3636923,23.0008205 67.4596923,22.1368205 67.4596923,22.1368205 L67.5236923,22.1368205 C67.5236923,22.1368205 67.6196923,23.0008205 67.8436923,23.8968205 L69.3156923,29.9768205 C69.5716923,31.0008205 70.2116923,31.5128205 71.2676923,31.5128205 L74.3396923,31.5128205 C75.3636923,31.5128205 76.0036923,31.0328205 76.2916923,30.0088205 L79.9396923,17.0168205 C80.2596923,15.8008205 79.6836923,15.0328205 78.4356923,15.0328205 L76.3236923,15.0328205 C75.2356923,15.0328205 74.6276923,15.5448205 74.4036923,16.6008205 L72.6756923,24.7608205 C72.4836923,25.6568205 72.4516923,26.4888205 72.4516923,26.4888205 L72.3876923,26.4888205 C72.3876923,26.4888205 72.3556923,25.6568205 72.1316923,24.7608205 L70.2116923,16.5688205 C69.9876923,15.5448205 69.3476923,15.0328205 68.2916923,15.0328205 L66.6916923,15.0328205 C65.6356923,15.0328205 64.9956923,15.5448205 64.7716923,16.5688205 L62.8516923,24.7608205 C62.6276923,25.6568205 62.5636923,26.4888205 62.5636923,26.4888205 L62.4996923,26.4888205 C62.4996923,26.4888205 62.4996923,25.6568205 62.3076923,24.7608205 L60.5796923,16.6008205 C60.3556923,15.5448205 59.7476923,15.0328205 58.6596923,15.0328205 L56.4836923,15.0328205 C55.2356923,15.0328205 54.6596923,15.8008205 54.9796923,17.0168205 L58.6276923,30.0088205 Z M80.7716923,26.8728205 C80.7716923,22.4568205 86.0196923,21.2408205 90.0836923,21.2408205 L90.5636923,21.2408205 L90.5636923,20.9528205 C90.5636923,19.5768205 89.4436923,19.1288205 88.2276923,19.1288205 C87.1716923,19.1288205 86.0836923,19.4808205 85.2516923,19.8648205 C84.1956923,20.3128205 83.3956923,20.1208205 82.8836923,19.0968205 L82.4996923,18.2968205 C82.0196923,17.3048205 82.2116923,16.4408205 83.2036923,15.9288205 C84.4516923,15.3528205 86.3716923,14.6488205 88.7396923,14.6488205 C93.2836923,14.6488205 96.0996923,17.1768205 96.0996923,21.3688205 L96.0996923,29.7528205 C96.0996923,30.9048205 95.4916923,31.5128205 94.3396923,31.5128205 L92.8036923,31.5128205 C91.6516923,31.5128205 91.0436923,30.9368205 91.0436923,29.7208205 L91.0436923,29.5928205 C91.0436923,29.4008205 91.0756923,29.2728205 91.0756923,29.2728205 L91.0116923,29.2728205 C91.0116923,29.2728205 89.4436923,31.8968205 86.1476923,31.8968205 C82.9796923,31.8968205 80.7716923,29.7208205 80.7716923,26.8728205 Z M86.2436923,26.3608205 C86.2436923,27.1288205 86.7876923,27.7688205 87.8116923,27.7688205 C89.4116923,27.7688205 90.6276923,26.2008205 90.6276923,24.8568205 L90.6276923,24.4088205 L90.1156923,24.4088205 C88.4196923,24.4088205 86.2436923,24.8568205 86.2436923,26.3608205 Z M99.1076923,29.7528205 C99.1076923,30.9048205 99.7156923,31.5128205 100.867692,31.5128205 L102.883692,31.5128205 C104.035692,31.5128205 104.643692,30.9048205 104.643692,29.7528205 L104.643692,24.0568205 C104.643692,21.7208205 105.763692,19.6728205 108.227692,19.6728205 C109.443692,19.6728205 110.051692,20.3128205 110.051692,21.8488205 L110.051692,29.7528205 C110.051692,30.9048205 110.659692,31.5128205 111.811692,31.5128205 L113.827692,31.5128205 C114.979692,31.5128205 115.587692,30.9048205 115.587692,29.7528205 L115.587692,20.8248205 C115.587692,16.1848205 112.995692,14.6488205 109.667692,14.6488205 C106.755692,14.6488205 105.187692,16.2168205 104.419692,17.4968205 L104.355692,17.4968205 C104.355692,17.4968205 104.387692,17.2408205 104.387692,17.0808205 L104.387692,16.7928205 C104.387692,15.6408205 103.811692,15.0328205 102.659692,15.0328205 L100.867692,15.0328205 C99.7156923,15.0328205 99.1076923,15.6408205 99.1076923,16.7928205 L99.1076923,29.7528205 Z M117.507692,26.8728205 C117.507692,22.4568205 122.755692,21.2408205 126.819692,21.2408205 L127.299692,21.2408205 L127.299692,20.9528205 C127.299692,19.5768205 126.179692,19.1288205 124.963692,19.1288205 C123.907692,19.1288205 122.819692,19.4808205 121.987692,19.8648205 C120.931692,20.3128205 120.131692,20.1208205 119.619692,19.0968205 L119.235692,18.2968205 C118.755692,17.3048205 118.947692,16.4408205 119.939692,15.9288205 C121.187692,15.3528205 123.107692,14.6488205 125.475692,14.6488205 C130.019692,14.6488205 132.835692,17.1768205 132.835692,21.3688205 L132.835692,29.7528205 C132.835692,30.9048205 132.227692,31.5128205 131.075692,31.5128205 L129.539692,31.5128205 C128.387692,31.5128205 127.779692,30.9368205 127.779692,29.7208205 L127.779692,29.5928205 C127.779692,29.4008205 127.811692,29.2728205 127.811692,29.2728205 L127.747692,29.2728205 C127.747692,29.2728205 126.179692,31.8968205 122.883692,31.8968205 C119.715692,31.8968205 117.507692,29.7208205 117.507692,26.8728205 Z M122.979692,26.3608205 C122.979692,27.1288205 123.523692,27.7688205 124.547692,27.7688205 C126.147692,27.7688205 127.363692,26.2008205 127.363692,24.8568205 L127.363692,24.4088205 L126.851692,24.4088205 C125.155692,24.4088205 122.979692,24.8568205 122.979692,26.3608205 Z" id="wana-copy" fill="#FFFFFF"></path>
            <polygon id="Clip-5" points="2.00007162 0.0591153096 33.627877 0.0591153096 33.627877 32.8205279 2.00007162 32.8205279"></polygon>
            <path d="M32.6925122,0.271546559 C32.643446,0.143335433 32.5407996,0.0485206178 32.4065546,0.0598446544 C31.9465103,0.0991908832 31.0947217,0.138345179 30.551265,0.177307542 C30.3610845,0.191126706 30.2460734,0.390161044 30.3281121,0.565395712 C31.1604704,2.34730004 31.7076562,5.21976668 28.9854657,7.10128415 C26.1665166,9.04959424 22.2041298,8.50795981 18.8646869,8.2857016 C16.0060924,8.09549618 13.3312016,7.71297406 11.1426546,10.0006214 C8.86676986,12.3800126 8.40358531,16.3059985 9.97330991,19.2043761 C10.8335378,20.7922363 12.2892327,21.9705119 13.9256872,22.6511057 C14.7874853,23.0094443 15.7056113,23.2127012 16.6355131,23.2562699 C17.1277449,23.2794938 17.621743,23.2626037 18.1106382,23.1986901 C18.3736328,23.1641422 19.0030535,22.8773945 19.0479981,23.2019529 C15.7468268,24.5312797 11.7285046,23.3080918 9.53367711,20.5139337 C8.06954289,18.6494983 7.49193606,16.1820099 7.7880994,13.833136 C7.51018867,14.1097112 7.23561443,14.3914686 6.98694714,14.6951063 C5.94831466,15.9633984 5.21310731,17.4689195 4.78446534,19.0600426 C4.70164166,19.3667512 4.39821652,19.5538857 4.09557645,19.4742336 C3.45320228,19.3053327 2.85243621,18.9694503 2.37041026,18.5059325 C2.21437987,18.3558411 1.96100222,18.4886586 2.00516176,18.7024717 C2.30858689,20.170182 3.03574739,21.6716725 4.34444001,22.1002585 C4.24316746,26.2396737 6.13319595,30.0572176 9.2989446,32.4999466 C10.0031421,33.0431165 10.9929047,32.8767108 11.510062,32.1471741 C12.5255353,30.7153552 14.1409896,29.7466703 15.9483906,29.7034854 C17.3090934,29.6706649 18.6295619,30.7082537 19.4778177,31.9659895 C19.9879095,32.721821 21.0383178,32.8594368 21.7160196,32.2556161 C24.5608756,29.7221029 26.8872004,26.8020369 28.8037246,23.3197997 C27.2746268,19.5448649 27.0473523,14.6786001 29.1825154,10.6977214 C29.4506129,10.7366838 29.9255733,10.6251708 30.193867,10.6641332 C29.9799386,11.6796497 29.039831,12.7540897 29.4633701,13.7387051 C29.7972162,14.5141137 30.4419456,15.0947105 31.1278905,15.5451768 C31.3859785,15.7146535 31.6538797,15.8626337 31.9266876,15.9981383 C33.1223318,12.0909618 34.6433827,5.38636437 32.6925122,0.271546559" id="Fill-4" fill="#9FA9E3"></path>
            <polygon id="Clip-8" points="50.1761499 33.8461538 28.7003942 33.8461538 28.7003942 9.42553544 50.1761499 9.42553544 50.1761499 33.8461538"></polygon>
            <path d="M49.9229553,23.9897301 C49.6824107,24.2931854 49.3488505,24.4989861 48.9461003,24.5867541 C48.708796,24.6382043 48.4713011,24.4675107 48.4108791,24.2193392 C48.123636,23.0398184 47.6181493,21.9202219 46.8801234,20.9836267 C46.7093406,20.7665271 46.5204502,20.5655687 46.3296537,20.3680404 C46.5330302,22.044913 46.1363794,23.8065271 45.1305523,25.137372 C43.6232412,27.132227 40.8626966,28.0054678 38.5952494,27.0561614 C38.6257463,26.8247364 39.0584216,27.0295284 39.239116,27.0541438 C39.5747729,27.0997427 39.9142419,27.1118487 40.2523767,27.0953039 C40.8910969,27.0640303 41.5218117,26.9189609 42.1136428,26.6631223 C43.2378362,26.1772711 44.2377545,25.336111 44.8286326,24.2025927 C45.9068899,22.133488 45.5889594,19.3307642 44.0254196,17.6321009 C42.5221112,15.9990113 40.6846708,16.272 38.7212398,16.4077881 C36.4271078,16.5663758 33.8890002,16.7142699 31.9577817,15.1360605 C30.5837041,14.0132358 30.4546639,10.9129079 31.0832821,9.79230265 C31.1536156,9.66640101 31.0800418,9.51164691 30.9418525,9.502971 C30.5240445,9.47714502 29.8782718,9.45252963 29.5513828,9.42609836 C29.4614168,9.4188348 29.3828872,9.48259269 29.3611582,9.57520303 C29.0666721,10.8360353 28.853956,12.1055435 28.7605591,13.4065271 C28.2407769,20.6535385 31.1130166,28.5167415 36.4415938,33.3845347 C37.0034999,33.897826 37.8436905,33.7436772 38.2796061,33.1075107 C38.9147048,32.1803985 39.7930166,31.6745725 40.7245074,31.6977755 C41.9217027,31.7276368 42.9965292,32.3718739 43.6971963,33.3346986 C44.1245346,33.9222396 44.9155489,34.0152535 45.4633501,33.5532106 C47.4172507,31.9047869 48.61883,29.444459 48.6925945,26.7565397 C49.5724311,26.2137907 50.146536,25.1633997 50.1760799,24.0908146 C50.1800826,23.9449382 50.0113964,23.8779521 49.9229553,23.9897301" id="Fill-7" fill="#BFC6EC"></path>
            <path d="M23.7179346,13.1901135 C23.4947253,13.2278548 23.3035409,13.3363374 23.1002868,13.5328198 C22.8725713,13.7050263 22.7517132,13.9591638 22.3688616,14.2597667 C22.26297,14.3208355 22.1377667,14.3801975 21.9810213,14.3515596 C21.8270116,14.3265252 21.6910261,14.1924392 21.6224701,14.0666981 C21.4861627,13.8055434 21.4708744,13.5591818 21.4988761,13.3238201 C21.62939,13.4924233 21.7595821,13.6576126 21.8698189,13.6915608 C21.9813431,13.7148884 21.9311331,13.635992 22.0004937,13.5618369 C22.0952813,13.3602339 22.3207437,12.9090451 22.6178198,12.6471318 C22.9134475,12.3812357 23.3521416,12.1976498 23.7716851,12.3827529 C24.1873663,12.551925 24.4817066,12.9915449 24.5641026,13.460182 C24.2321048,13.2540272 23.9424314,13.1620446 23.7179346,13.1901135" id="Fill-10" fill="#5F70D0"></path>
            <path d="M34.6409582,20.3695597 C34.8642986,20.4074531 35.0553111,20.5158078 35.2586638,20.712239 C35.4865231,20.8847052 35.6073181,21.1386934 35.9900384,21.4393827 C36.0960599,21.5004218 36.2212,21.5598223 36.3779728,21.5309414 C36.5319647,21.5061571 36.6678808,21.3721988 36.7365341,21.246024 C36.8727978,20.9850715 36.8880927,20.7388668 36.8601099,20.5031084 C36.729408,20.6720925 36.5994013,20.83698 36.4892085,20.8709816 C36.3776252,20.8943322 36.4276812,20.8154729 36.3583328,20.7413248 C36.2636086,20.5397728 36.0381826,20.088534 35.7411485,19.8267623 C35.445505,19.5608939 35.0066455,19.3771621 34.5872522,19.5621229 C34.1715088,19.7313119 33.8772557,20.1710802 33.7948718,20.6397295 C34.1268408,20.4334664 34.416575,20.3414981 34.6409582,20.3695597" id="Fill-12" fill="#5F70D0"></path>
        </g>
    </g>
</svg>