<?xml version="1.0" encoding="UTF-8"?>
<svg width="24px" height="24px" viewBox="0 0 24 24" version="1.1" xmlns="http://www.w3.org/2000/svg" xmlns:xlink="http://www.w3.org/1999/xlink">
    <!-- Generator: Sketch 46.2 (44496) - http://www.bohemiancoding.com/sketch -->
    <title>Atoms/Icons/Family</title>
    <desc>Created with Sketch.</desc>
    <defs>
        <path d="M5.8251094,15 L5.95800331,15 L5.6920311,13 L5.69207061,14.3697948 C5.69205868,14.073884 5.69204751,13.6390327 5.6920311,13 L6.26153662,13 C6.81382137,13 7.26153662,13.4477153 7.26153662,14 C7.26153662,14.5522847 6.81382137,15 6.26153662,15 L5.8251094,15 Z M5.95819299,15 L4.38584424,15 C3.15396201,15 2.52979007,15.4026916 2.21659691,16.0986764 C2.0392301,16.4928248 1.98554544,16.9293814 2.00376107,17.2656698 C2.05921244,17.8266635 1.65826845,18.3167062 1.10872458,18.3716606 C0.559180716,18.426615 0.0691380592,18.025671 0.0141836726,17.4761271 C0.0111883471,17.4447199 0.0111883471,17.4447199 0.00668865238,17.3738445 C-0.0272935279,16.7464812 0.0632525857,16.0101722 0.392753903,15.277947 C1.02923607,13.8635422 2.36772647,13 4.38584424,13 L5.95800331,13 C5.95803334,13 5.95809656,13.6666667 5.95819299,15 Z M6.6505795,11.7532468 C4.23343716,11.7532468 2.27395613,9.79376572 2.27395613,7.37662338 C2.27395613,4.95948103 4.23343716,3 6.6505795,3 C9.06772185,3 11.0272029,4.95948103 11.0272029,7.37662338 C11.0272029,9.79376572 9.06772185,11.7532468 6.6505795,11.7532468 Z M6.6505795,9.75324675 C7.96315235,9.75324675 9.02720288,8.68919622 9.02720288,7.37662338 C9.02720288,6.06405053 7.96315235,5 6.6505795,5 C5.33800666,5 4.27395613,6.06405053 4.27395613,7.37662338 C4.27395613,8.68919622 5.33800666,9.75324675 6.6505795,9.75324675 Z M19.614977,13 C21.6312334,13 22.9690921,13.8634828 23.6062713,15.2774734 C23.9365168,16.0103348 24.0275598,16.7471239 23.9940451,17.3741899 C23.9896772,17.443909 23.9896772,17.443909 23.9867596,17.4748957 C23.9324853,18.0245071 23.4429392,18.4260572 22.8933277,18.3717829 C22.3437163,18.3175086 21.9421662,17.8279625 21.9964405,17.2783511 C22.0148596,16.9313395 21.9608318,16.494106 21.7828549,16.09915 C21.4690402,15.4027509 20.845028,15 19.614977,15 L17.9836927,15 L17.9836903,13 L19.614977,13 Z M18.1549198,15 L17.5207094,15 C16.9684246,15 16.5207094,14.5522847 16.5207094,14 C16.5207094,13.4477153 16.9684246,13 17.5207094,13 L18.1527586,13 C18.1548552,13.0000003 18.1548553,13.0007932 18.1549198,15 Z M19.1549198,15 L18.983889,15 C18.9837566,15 18.9837566,15 18.9836903,13 L19.1547246,13 C19.1547627,13 19.1548277,13.6666667 19.1549198,15 Z M17.0921379,11.7532468 C14.6749956,11.7532468 12.7155146,9.79376572 12.7155146,7.37662338 C12.7155146,4.95948103 14.6749956,3 17.0921379,3 C19.5092803,3 21.4687613,4.95948103 21.4687613,7.37662338 C21.4687613,9.79376572 19.5092803,11.7532468 17.0921379,11.7532468 Z M17.0921379,9.75324675 C18.4047108,9.75324675 19.4687613,8.68919622 19.4687613,7.37662338 C19.4687613,6.06405053 18.4047108,5 17.0921379,5 C15.7795651,5 14.7155146,6.06405053 14.7155146,7.37662338 C14.7155146,8.68919622 15.7795651,9.75324675 17.0921379,9.75324675 Z M8.00187492,21.0191153 C7.99111844,20.8359537 8.02573811,20.58482 8.13610511,20.3660346 C8.32376647,19.994025 8.68850604,19.7841103 9.49079056,19.7841103 L14.4618007,19.7841103 C15.2627421,19.7841103 15.6274265,19.994078 15.8155351,20.3664571 C15.9263332,20.5857926 15.9611849,20.8373938 15.9500256,21.0236486 C15.8963194,21.5104975 16.2978695,21.9471997 16.8474809,21.9956153 C17.3970924,22.044031 17.8866385,21.6858262 17.9409128,21.1955424 C17.9435746,21.1702114 17.9435746,21.1702114 17.9471752,21.1188677 C17.9738852,20.6730633 17.9020182,20.154242 17.6389515,19.6334762 C17.1274784,18.6209659 16.0489475,18 14.4618007,18 L9.49079056,18 C7.90227049,18 6.82321248,18.6210189 6.3122621,19.6338987 C6.04976059,20.1542672 5.97827947,20.6727967 6.00536194,21.11881 C6.00906932,21.1709799 6.00906932,21.1709799 6.01180054,21.1966409 C6.06675493,21.6868644 6.55679759,22.0445285 7.10634145,21.9955062 C7.65588532,21.9464838 8.05682931,21.5093388 8.00187492,21.0191153 Z M11.835831,17.6692044 C9.91169702,17.6692044 8.35187821,16.1093855 8.35187821,14.1852515 C8.35187821,12.2611175 9.91169702,10.7012987 11.835831,10.7012987 C13.7599651,10.7012987 15.3197839,12.2611175 15.3197839,14.1852515 C15.3197839,16.1093855 13.7599651,17.6692044 11.835831,17.6692044 Z M11.835831,15.6692044 C12.6553956,15.6692044 13.3197839,15.004816 13.3197839,14.1852515 C13.3197839,13.365687 12.6553956,12.7012987 11.835831,12.7012987 C11.0162665,12.7012987 10.3518782,13.365687 10.3518782,14.1852515 C10.3518782,15.004816 11.0162665,15.6692044 11.835831,15.6692044 Z" id="path-1"></path>
    </defs>
    <g id="Symbols" stroke="none" stroke-width="1" fill="none" fill-rule="evenodd">
        <g id="Atoms/Icons/Family">
            <mask id="mask-2" fill="white">
                <use xlink:href="#path-1"></use>
            </mask>
            <use id="Combined-Shape" fill="#000000" fill-rule="nonzero" xlink:href="#path-1"></use>
            <g id="Atoms/Colors/Black" mask="url(#mask-2)" fill="#333333">
                <rect id="Rectangle-5-Copy" x="0" y="0" width="24" height="24"></rect>
            </g>
        </g>
    </g>
</svg>