<?xml version="1.0" encoding="UTF-8"?>
<svg width="24px" height="24px" viewBox="0 0 24 24" version="1.1" xmlns="http://www.w3.org/2000/svg" xmlns:xlink="http://www.w3.org/1999/xlink">
    <!-- Generator: Sketch 46.2 (44496) - http://www.bohemiancoding.com/sketch -->
    <title>Atoms/Icons/Inbox Line</title>
    <desc>Created with Sketch.</desc>
    <defs>
        <path d="M20.980022,13.0104121 L17.4974816,4.29487821 C17.4468531,4.16817332 17.1968155,4 17.0497215,4 L7.00723108,4 C6.85409317,4 6.61216742,4.16299812 6.55947097,4.29487821 L3.07693065,13.0104121 L8.72477184,13.0104121 L9.24874942,14.209669 C9.72584948,15.3016345 10.8029383,16.0104121 12,16.0104121 C13.1970617,16.0104121 14.2741505,15.3016345 14.7512505,14.2096689 L15.2752281,13.0104121 L20.980022,13.0104121 Z M23,15.0246484 L23,20.0196341 C23,21.6718996 21.6591226,23.0104121 20.0066023,23.0104121 L3.99339768,23.0104121 C2.34338293,23.0104121 1,21.6672074 1,20.0196341 L1,14.2604122 L1,12.8181537 L4.70224779,3.5527717 C5.05921154,2.65942102 6.03794017,2 7.00723108,2 L17.0497215,2 C18.0123414,2 18.9995722,2.66400373 19.3547048,3.55277164 L23.0624455,12.8319001 L23,15.0246484 Z M3,15.0104121 L3,20.0196341 C3,20.5625785 3.44789304,21.0104121 3.99339768,21.0104121 L20.0066023,21.0104121 C20.5553426,21.0104121 21,20.566539 21,20.0196341 L21,15.0104121 L16.5839563,15.0104121 C15.7893874,16.8289866 13.9940424,18.0104121 12,18.0104121 C10.0059576,18.0104121 8.21061265,16.8289866 7.41604368,15.0104122 L3,15.0104121 Z M9,2 L9,4 L15,4 L15,2 L9,2 Z M13,9.58578644 L13,1 L13,1 C13,0.44771525 12.5522847,-1.01453063e-16 12,0 C11.4477153,1.01453063e-16 11,0.44771525 11,1 L11,1 L11,9.58578644 L8.70710678,7.29289322 C8.31658249,6.90236893 7.68341751,6.90236893 7.29289322,7.29289322 C6.90236893,7.68341751 6.90236893,8.31658249 7.29289322,8.70710678 L11.2928932,12.7071068 C11.6834175,13.0976311 12.3165825,13.0976311 12.7071068,12.7071068 L16.7071068,8.70710678 C17.0976311,8.31658249 17.0976311,7.68341751 16.7071068,7.29289322 C16.3165825,6.90236893 15.6834175,6.90236893 15.2928932,7.29289322 L13,9.58578644 Z" id="path-1"></path>
    </defs>
    <g id="Symbols" stroke="none" stroke-width="1" fill="none" fill-rule="evenodd">
        <g id="Atoms/Icons/Inbox-Line">
            <mask id="mask-2" fill="white">
                <use xlink:href="#path-1"></use>
            </mask>
            <use id="Combined-Shape" fill="#333333" fill-rule="nonzero" xlink:href="#path-1"></use>
            <g id="Atoms/Colors/Black" mask="url(#mask-2)" fill="#333333">
                <rect id="Rectangle-5-Copy" x="0" y="0" width="24" height="24"></rect>
            </g>
        </g>
    </g>
</svg>