<?xml version="1.0" encoding="UTF-8" standalone="no"?>
<svg width="24px" height="24px" viewBox="0 0 24 24" version="1.1" xmlns="http://www.w3.org/2000/svg" xmlns:xlink="http://www.w3.org/1999/xlink">
    <!-- Generator: Sketch 46.2 (44496) - http://www.bohemiancoding.com/sketch -->
    <title>Atoms/Icons/Kids</title>
    <desc>Created with Sketch.</desc>
    <defs>
        <path d="M8,21 C8,21.5522847 7.55228475,22 7,22 C6.44771525,22 6,21.5522847 6,21 C6,20.3586127 6.14867018,19.4665917 6.60557281,18.5527864 C7.39436214,16.9752077 8.85717375,16 11,16 L19,16 C21.1451585,16 22.6096824,16.9748265 23.3996151,18.5522278 C23.8573114,19.4661927 24.0062485,20.3584214 24.0062485,21 C24.0062485,21.5522847 23.5585332,22 23.0062485,22 C22.4539638,22 22.0062485,21.5522847 22.0062485,21 C22.0062485,20.9269862 21.9944681,20.762318 21.9572986,20.5396488 C21.8944403,20.1630869 21.7817969,19.7881947 21.6113198,19.4477722 C21.1492998,18.5251735 20.360309,18 19,18 L11,18 C9.64282625,18 8.85563786,18.5247923 8.39442719,19.4472136 C8.22417415,19.7877197 8.11167338,20.1627222 8.04889392,20.539399 C8.01176795,20.7621548 8,20.9269061 8,21 Z M8.27455269,11.9477557 C5.85692935,11.5963698 4,9.51503944 4,7 C4,4.23857625 6.23857625,2 9,2 C10.373942,2 11.6184509,2.55416948 12.5221996,3.45118158 C11.8469348,3.70680858 11.2215328,4.06387931 10.664592,4.50379553 C10.1883045,4.18555118 9.61582114,4 9,4 C7.34314575,4 6,5.34314575 6,7 C6,8.3069749 6.83577432,9.41874424 8.00202365,9.83000873 C8.00067709,9.88650926 8,9.94317556 8,10 C8,10.6759052 8.09579644,11.329436 8.27455269,11.9477557 Z M8.67363116,13 C9.02972955,13.7496048 9.51513298,14.4258795 10.1010173,15 L5,15 C3.64282625,15 2.85563786,15.5247923 2.39442719,16.4472136 C2.22417415,16.7877197 2.11167338,17.1627222 2.04889392,17.539399 C2.01176795,17.7621548 2,17.9269061 2,18 C2,18.5522847 1.55228475,19 1,19 C0.44771525,19 0,18.5522847 0,18 C0,17.3586127 0.148670182,16.4665917 0.605572809,15.5527864 C1.39436214,13.9752077 2.85717375,13 5,13 L8.67363116,13 Z M15,15 C12.2385763,15 10,12.7614237 10,10 C10,7.23857625 12.2385763,5 15,5 C17.7614237,5 20,7.23857625 20,10 C20,12.7614237 17.7614237,15 15,15 Z M15,13 C16.6568542,13 18,11.6568542 18,10 C18,8.34314575 16.6568542,7 15,7 C13.3431458,7 12,8.34314575 12,10 C12,11.6568542 13.3431458,13 15,13 Z" id="path-1"></path>
    </defs>
    <g id="Symbols" stroke="none" stroke-width="1" fill="none" fill-rule="evenodd">
        <g id="Atoms/Icons/Kids">
            <mask id="mask-2" fill="white">
                <use xlink:href="#path-1"></use>
            </mask>
            <use id="Combined-Shape" fill="#333333" fill-rule="nonzero" xlink:href="#path-1"></use>
            <g id="Atoms/Colors/Black" mask="url(#mask-2)" fill="#333333">
                <rect id="Rectangle-5-Copy" x="0" y="0" width="24" height="24"></rect>
            </g>
        </g>
    </g>
</svg>