<?xml version="1.0" encoding="UTF-8" standalone="no"?>
<svg width="24px" height="24px" viewBox="0 0 24 24" version="1.1" xmlns="http://www.w3.org/2000/svg" xmlns:xlink="http://www.w3.org/1999/xlink">
    <!-- Generator: Sketch 46.2 (44496) - http://www.bohemiancoding.com/sketch -->
    <title>Atoms/Icons/No Outdoor Area</title>
    <desc>Created with Sketch.</desc>
    <defs>
        <path d="M12,0 C5.3832381,0 0,5.3832381 0,12 C0,18.6167619 5.3832381,24 12,24 C18.6167619,24 24,18.6171429 24,12.000381 C24,5.3832381 18.6167619,0 12,0 Z M22.8571429,12.000381 C22.8571429,14.7881905 21.8,17.3337143 20.0659048,19.2586667 L12.3790476,11.5718095 L4.74133333,3.93409524 C6.66628571,2.20038095 9.21142857,1.14285714 12,1.14285714 C17.9866667,1.14285714 22.8571429,6.01333333 22.8571429,12.000381 Z M1.14285714,12.000381 C1.14285714,9.21219048 2.2,6.66704762 3.93333333,4.74209524 L10.7630476,11.5718095 L15.4106667,16.2190476 L19.2582857,20.0666667 C17.3333333,21.8 14.7878095,22.8575238 12,22.8575238 C6.01333333,22.8575238 1.14285714,17.9866667 1.14285714,12.000381 Z M18.496,18.144 L16.384,18.144 L16.384,14.88 C18.592,14.688 19.968,13.184 19.968,10.912 C19.968,8.288 18.208,4.224 15.872,4.224 C14.72,4.224 13.728,5.216 12.992,6.528 C12.064,5.824 10.912,5.44 9.728,5.44 C6.688,5.44 4.224,7.904 4.224,10.944 C4.224,13.824 6.464,16.192 9.312,16.416 L9.312,18.176 L7.072,18.176 C6.784,18.176 6.56,18.4 6.56,18.688 C6.56,18.976 6.784,19.2 7.072,19.2 L18.496,19.2 C18.784,19.2 19.008,18.976 19.008,18.688 C18.976,18.368 18.752,18.144 18.496,18.144 Z M15.872,5.216 C17.376,5.216 18.976,8.576 18.976,10.912 C18.976,12.608 18.016,13.696 16.384,13.888 L16.384,12.864 L17.472,12 C17.696,11.84 17.728,11.52 17.536,11.296 C17.376,11.072 17.056,11.04 16.832,11.232 L16.384,11.616 L16.384,11.424 C16.384,11.136 16.16,10.912 15.872,10.912 C15.584,10.912 15.36,11.136 15.36,11.424 L15.36,12.064 L15.2,11.936 C15.008,11.744 14.688,11.776 14.496,12 C14.304,12.224 14.336,12.512 14.56,12.704 L15.36,13.376 L15.36,13.92 C14.848,13.856 14.4,13.728 14.048,13.504 C14.048,13.504 14.048,13.504 14.048,13.504 C14.048,13.504 14.048,13.504 14.016,13.504 C13.216,13.024 12.768,12.128 12.768,10.976 C12.768,8.544 14.368,5.216 15.872,5.216 Z M5.216,10.944 C5.216,8.448 7.232,6.432 9.728,6.432 C10.752,6.432 11.744,6.784 12.544,7.424 C12.064,8.576 11.776,9.856 11.776,10.912 C11.776,12.224 12.224,13.248 13.056,13.952 C12.352,14.752 11.36,15.264 10.304,15.392 L10.304,12.64 L11.232,11.52 C11.424,11.296 11.392,11.008 11.168,10.816 C10.944,10.624 10.656,10.656 10.464,10.88 L10.272,11.104 L10.272,10.336 C10.272,10.048 10.048,9.824 9.76,9.824 C9.472,9.824 9.248,10.048 9.248,10.336 L9.248,12.608 L8.256,11.68 C8.064,11.488 7.744,11.488 7.552,11.712 C7.36,11.904 7.36,12.224 7.584,12.416 L9.248,13.984 L9.248,15.456 C7.008,15.2 5.216,13.28 5.216,10.944 Z M10.304,16.384 C11.712,16.224 12.992,15.552 13.888,14.496 C14.336,14.688 14.816,14.816 15.36,14.88 L15.36,18.144 L10.272,18.144 L10.272,16.384 L10.304,16.384 Z" id="path-1"></path>
    </defs>
    <g id="Symbols" stroke="none" stroke-width="1" fill="none" fill-rule="evenodd">
        <g id="Atoms/Icons/No-Outdoor-Area">
            <mask id="mask-2" fill="white">
                <use xlink:href="#path-1"></use>
            </mask>
            <use id="Mask" fill="#333333" fill-rule="nonzero" xlink:href="#path-1"></use>
            <g id="Atoms/Colors/Black" mask="url(#mask-2)" fill="#333333">
                <rect id="Rectangle-5-Copy" x="0" y="0" width="24" height="24"></rect>
            </g>
        </g>
    </g>
</svg>