<?xml version="1.0" encoding="UTF-8" standalone="no"?>
<svg width="24px" height="24px" viewBox="0 0 24 24" version="1.1" xmlns="http://www.w3.org/2000/svg" xmlns:xlink="http://www.w3.org/1999/xlink">
    <!-- Generator: Sketch 46.2 (44496) - http://www.bohemiancoding.com/sketch -->
    <title>Atoms/Icons/No Pets</title>
    <desc>Created with Sketch.</desc>
    <defs>
        <path d="M12,0 C18.6167619,0 24,5.3832381 24,12.000381 C24,18.6171429 18.6167619,24 12,24 C5.3832381,24 0,18.6167619 0,12 C0,5.3832381 5.3832381,0 12,0 Z M22.8571429,12.000381 C22.8571429,6.01333333 17.9866667,1.14285714 12,1.14285714 C9.21142857,1.14285714 6.66628571,2.20038095 4.74133333,3.93409524 L12.3790476,11.5718095 L20.0659048,19.2586667 C21.8,17.3337143 22.8571429,14.7881905 22.8571429,12.000381 Z M1.14285714,12.000381 C1.14285714,17.9866667 6.01333333,22.8575238 12,22.8575238 C14.7878095,22.8575238 17.3333333,21.8 19.2582857,20.0666667 L15.4106667,16.2190476 L10.7630476,11.5718095 L3.93333333,4.74209524 C2.2,6.66704762 1.14285714,9.21219048 1.14285714,12.000381 Z M13.2091272,18.5290412 L10.6044761,18.5290412 C9.07416689,18.5290412 7.90513817,18.0299728 7.39646512,17.1604466 C6.97757592,16.443775 7.05234473,15.5621269 7.60636936,14.6781135 C8.65160055,13.0103145 9.73237756,11.2854537 11.7535869,11.2854537 C13.764684,11.2854537 14.9245198,13.0041057 16.0454391,14.6654003 C16.6503311,15.5615356 16.7588071,16.4544186 16.3512558,17.1796643 C15.8689357,18.0370686 14.7238085,18.5290412 13.2091272,18.5290412 Z M11.7535869,12.1724236 C10.3519781,12.1724236 9.54882627,13.2923709 8.39297401,15.1369726 C8.12791245,15.5600573 7.87817237,16.1788666 8.19716553,16.7246488 C8.53301231,17.298814 9.43268947,17.6420713 10.6041696,17.6420713 L13.2088208,17.6420713 C14.3585445,17.6420713 15.2312558,17.3112315 15.5425882,16.7568753 C15.7819097,16.3308341 15.6869166,15.7602168 15.2747688,15.1490946 C14.0619207,13.3509109 13.1610178,12.1724236 11.7535869,12.1724236 Z M9.78937346,10.5451294 C8.8575212,10.5451294 8.07275513,9.61351539 8.00258276,8.42408875 C7.96948837,7.86174983 8.0994145,7.31833293 8.3690725,6.89436132 C8.66692202,6.42604121 9.11737346,6.14221084 9.60551573,6.11530609 C10.5692367,6.05913133 11.3978222,7.011737 11.4695267,8.23398153 C11.5026211,8.79602479 11.3730014,9.33944169 11.1030369,9.76400462 C10.8054938,10.2323247 10.3550424,10.5161551 9.86690014,10.5430598 C9.84085363,10.5442425 9.81511354,10.5451294 9.78937346,10.5451294 Z M9.68304241,6.99991074 C9.40725581,7.01439791 9.23381669,7.23052291 9.15261286,7.35795092 C8.98254446,7.62522452 8.89827633,7.99568228 8.92033926,8.37382712 C8.96569083,9.14194306 9.40633653,9.65815954 9.78937346,9.65815954 L9.81450068,9.65727257 C10.0651601,9.64367237 10.2385992,9.42754737 10.3194966,9.2998237 C10.489565,9.0325501 10.5741395,8.662388 10.5517702,8.28424316 C10.5064186,7.51583157 10.0660793,6.99991074 9.68304241,6.99991074 Z M13.9332202,10.5451294 C13.9329138,10.5451294 13.9329138,10.5451294 13.9332202,10.5451294 C13.9071737,10.5451294 13.8811272,10.5442425 13.8553871,10.5427642 C12.883699,10.4892503 12.1795239,9.47514808 12.2527606,8.23368588 C12.3253844,7.01144135 13.1579535,6.06179224 14.1173844,6.11501043 C15.0896854,6.16852428 15.793554,7.18262654 15.7200109,8.42408875 C15.6498386,9.61351539 14.8647661,10.5451294 13.9332202,10.5451294 Z M14.0643721,7.00079771 C13.6562079,7.00079771 13.2161751,7.51671854 13.1705171,8.28453882 C13.1248591,9.06684627 13.5219918,9.63628095 13.9077866,9.65756823 L13.9329138,9.6584552 C14.3162572,9.6584552 14.7565964,9.14223871 14.8022544,8.37412278 C14.8482189,7.59122401 14.4510862,7.02208499 14.064985,7.00079771 L14.0643721,7.00079771 L14.0643721,7.00079771 Z M6.64479343,13.2024913 C5.99975923,13.2024913 5.33143639,12.8728341 4.85677702,12.3202519 C4.49243228,11.8962803 4.28007661,11.3874552 4.25862654,10.8872042 C4.23595075,10.3499961 4.44309713,9.86600616 4.82674692,9.55911457 C5.10621067,9.3353025 5.45829822,9.21763116 5.84501231,9.21763116 C6.49004651,9.21763116 7.15867579,9.5472883 7.63333516,10.0992792 C8.41534337,11.0099017 8.42882627,12.248703 7.66336525,12.8607122 C7.38359508,13.0842286 7.03150752,13.2024913 6.64479343,13.2024913 Z M5.84501231,10.1046011 C5.67249248,10.1046011 5.52785773,10.1507235 5.41355951,10.2420814 C5.1926238,10.4185884 5.17056088,10.6994622 5.17730233,10.8514297 C5.19017237,11.1538865 5.33112996,11.4832479 5.56462927,11.7546607 C5.86217237,12.1008747 6.27585226,12.315817 6.64479343,12.315817 C6.81731327,12.315817 6.96256088,12.2693989 7.0768591,12.1777454 C7.44549384,11.8829757 7.3765472,11.1902522 6.92578933,10.6657574 C6.62824624,10.3192478 6.21425992,10.1046011 5.84501231,10.1046011 Z M17.0778003,13.2024913 C16.6907798,13.2024913 16.3386922,13.0842286 16.0592285,12.8607122 C15.2937674,12.248703 15.3075568,11.0099017 16.089565,10.0995749 C16.5639179,9.5472883 17.2322408,9.21763116 17.8775814,9.21763116 C18.2642955,9.21763116 18.616383,9.3353025 18.8961532,9.55881891 C19.6616142,10.1714195 19.6481313,11.4102208 18.8661231,12.3202519 C18.3914637,12.8728341 17.7228345,13.2024913 17.0778003,13.2024913 Z M17.877275,10.1046011 C17.5083338,10.1046011 17.0943475,10.3195434 16.7971108,10.6654617 C16.3463529,11.1899566 16.2770999,11.8826801 16.646041,12.1777454 C16.7600328,12.2691033 16.9055869,12.3155214 17.0778003,12.3155214 L17.0778003,12.3155214 C17.4470479,12.3155214 17.8610342,12.1002833 18.1582709,11.7543651 C18.6090287,11.2298702 18.6779754,10.5371467 18.3090342,10.2420814 C18.1950424,10.1507235 18.0497948,10.1046011 17.877275,10.1046011 Z" id="path-1"></path>
    </defs>
    <g id="Symbols" stroke="none" stroke-width="1" fill="none" fill-rule="evenodd">
        <g id="Atoms/Icons/No-Pets">
            <mask id="mask-2" fill="white">
                <use xlink:href="#path-1"></use>
            </mask>
            <use id="Combined-Shape" fill="#333333" fill-rule="nonzero" xlink:href="#path-1"></use>
            <g id="Atoms/Colors/Black" mask="url(#mask-2)" fill="#333333">
                <rect id="Rectangle-5-Copy" x="0" y="0" width="24" height="24"></rect>
            </g>
        </g>
    </g>
</svg>