<?xml version="1.0" encoding="UTF-8" standalone="no"?>
<svg width="24px" height="24px" viewBox="0 0 24 24" version="1.1" xmlns="http://www.w3.org/2000/svg" xmlns:xlink="http://www.w3.org/1999/xlink">
    <!-- Generator: Sketch 46.2 (44496) - http://www.bohemiancoding.com/sketch -->
    <title>Atoms/Icons/No Pool</title>
    <desc>Created with Sketch.</desc>
    <defs>
        <path d="M12,0 C5.3832381,0 0,5.3832381 0,12 C0,18.6167619 5.3832381,24 12,24 C18.6167619,24 24,18.6171429 24,12.000381 C24,5.3832381 18.6167619,0 12,0 Z M22.8571429,12.000381 C22.8571429,14.7881905 21.8,17.3337143 20.0659048,19.2586667 L12.3790476,11.5718095 L4.74133333,3.93409524 C6.66628571,2.20038095 9.21142857,1.14285714 12,1.14285714 C17.9866667,1.14285714 22.8571429,6.01333333 22.8571429,12.000381 Z M1.14285714,12.000381 C1.14285714,9.21219048 2.2,6.66704762 3.93333333,4.74209524 L10.7630476,11.5718095 L15.4106667,16.2190476 L19.2582857,20.0666667 C17.3333333,21.8 14.7878095,22.8575238 12,22.8575238 C6.01333333,22.8575238 1.14285714,17.9866667 1.14285714,12.000381 Z M11.4451362,13.5986711 L12.1025449,13.2900332 L11.736897,12.6626578 L10.0462658,9.76166113 C9.95071761,9.54079734 9.95683056,9.29136213 10.0640066,9.07342193 C10.1759003,8.84591362 10.3817475,8.68405316 10.6286578,8.62930233 L10.6600199,8.62239203 L10.6905183,8.61249169 L16.6435415,6.6766113 C16.6860664,6.66857143 16.7289236,6.66445183 16.7712492,6.66445183 C17.1491229,6.66451827 17.4684585,6.98730897 17.4684585,7.36930233 C17.4684585,7.68272425 17.259887,7.96093023 16.9612824,8.04578073 L16.9389568,8.05209302 L16.9172292,8.06 L12.4454684,9.6745515 L11.7497874,9.92578073 L12.0737741,10.5906312 C12.5134419,11.4927575 13.0408173,12.4380731 13.5508505,13.3522259 C13.9380266,14.0461794 14.3383588,14.7637209 14.692113,15.4483721 L14.7190233,15.5005316 C14.5258007,15.6031229 14.324206,15.6901661 14.0021462,15.6948837 L13.9734419,15.6948837 C13.6119801,15.6948837 13.3896545,15.5837209 13.1543056,15.4660465 L13.1479269,15.4629236 L13.1416146,15.4598671 L13.1310498,15.4548837 C12.8517143,15.3225249 12.5352359,15.1725581 12.0251362,15.1634551 C12.0106512,15.1631894 11.9963654,15.1630565 11.9822126,15.1630565 C11.4982924,15.1630565 11.1728439,15.3137542 10.9113821,15.4348173 L10.8802193,15.4493023 L10.8635415,15.4568771 C10.599289,15.5775415 10.3711163,15.681794 9.99962126,15.681794 L9.9749701,15.6816611 C9.57829236,15.6767442 9.35563455,15.5628571 9.11988704,15.4421927 L9.11091694,15.437608 L9.10168106,15.4332226 L9.06606645,15.4162791 C8.82194684,15.3002658 8.54766113,15.1699003 8.13603322,15.152093 L11.4451362,13.5986711 Z M3.98799336,15.8217276 C4.04360797,15.8217276 4.09855814,15.8237209 4.15277741,15.8277741 C4.51164784,15.8543522 4.74420598,15.9606645 4.99005316,16.0802658 C5.27576744,16.2131561 5.60134884,16.3659801 6.10633223,16.3659801 C6.63124917,16.3659801 6.95018605,16.1932226 7.23590033,16.0470432 C7.48174751,15.9141528 7.68108306,15.814485 8.02659801,15.814485 L8.0398206,15.814485 C8.37204651,15.814485 8.56480399,15.9141528 8.81729568,16.0337542 C9.10294352,16.1799336 9.42859136,16.339402 9.9667309,16.3460465 C9.97782724,16.3461794 9.9887907,16.3463123 9.99962126,16.3463123 C10.5253355,16.3463123 10.8566977,16.1904319 11.1561661,16.0536877 C11.4079934,15.9374751 11.6284585,15.8275083 11.9822126,15.8275083 C11.9924452,15.8275083 12.0028106,15.8275748 12.013309,15.8277741 C12.385402,15.8344186 12.6046711,15.9407309 12.8570963,16.0603322 C13.1362326,16.1998671 13.461814,16.3593355 13.9734419,16.3593355 L14.0066645,16.3593355 C14.5315814,16.352691 14.8504518,16.1865781 15.129588,16.0337542 C15.3687243,15.9075083 15.5614817,15.801196 15.8937076,15.801196 L15.9069967,15.801196 C16.2458007,15.801196 16.4451362,15.9075083 16.7043389,16.0337542 C16.9966312,16.1865781 17.3222791,16.352691 17.8538405,16.352691 C18.3654684,16.352691 18.6909834,16.1865781 18.9834086,16.0403987 C19.2358339,15.9141528 19.4485249,15.8078405 19.8006179,15.7812625 C19.8472625,15.7777409 19.8943056,15.7760133 19.9418804,15.7760133 C20.4309169,15.7760133 20.9741063,15.9616611 21.5614153,16.3128239 L21.9467973,15.6683056 C21.233309,15.2449834 20.5526445,15.0308306 19.9251362,15.0308306 C19.8631429,15.0308306 19.801814,15.0328904 19.7408837,15.0370764 C19.2358339,15.070299 18.9169635,15.2297674 18.6378272,15.3693023 C18.3787575,15.5021927 18.1794219,15.6018605 17.840485,15.6018605 L17.833907,15.6018605 C17.4949701,15.6018605 17.2956346,15.4955482 17.0431429,15.3693023 C16.757495,15.2164784 16.4252691,15.0503654 15.9002857,15.0503654 L15.8870631,15.0503654 C15.647794,15.0503654 15.4484585,15.0902326 15.2823455,15.1433887 C14.4584917,13.5487043 13.4352359,11.8676412 12.6711163,10.2995349 L17.1428106,8.68491694 C17.7275282,8.51880399 18.1329103,7.98059801 18.1329103,7.36930233 C18.1329103,6.60212625 17.50301,6.00006645 16.7713156,6 C16.6727774,6 16.5725781,6.01089701 16.4717807,6.03375415 L10.4850698,7.98059801 C9.55483721,8.18657807 9.04985382,9.20318937 9.45516944,10.0669767 L11.1627442,12.9972093 L5.72759468,15.5487043 C5.5880598,15.5088372 5.46181395,15.4490365 5.31556811,15.3825914 C5.03656478,15.249701 4.71756146,15.1035216 4.21922259,15.0636545 C4.14300997,15.0577409 4.06593355,15.0547508 3.98819269,15.0547508 C3.36839203,15.0547508 2.70254485,15.2424585 2.00001993,15.608505 L2.3521794,16.2729568 C2.94360797,15.9802658 3.4921794,15.821794 3.98799336,15.8217276 L3.98799336,15.8217276 Z M19.727588,17.4423654 C19.2358937,17.475588 18.9235349,17.6350565 18.6511761,17.7745914 C18.3853953,17.9074817 18.1794153,18.0138605 17.8339003,18.0138605 L17.8206113,18.0138605 C17.4684518,18.0138605 17.2491827,17.9008372 17.0033355,17.7745914 C16.7242658,17.6284784 16.3986179,17.4623654 15.893701,17.4623654 L15.880412,17.4623654 C15.3754286,17.4623654 15.0697807,17.6284784 14.7973555,17.7745914 C14.5581528,17.9008372 14.3455282,18.0138605 13.9933688,18.0204385 C13.6279203,18.0271495 13.4219402,17.9207708 13.1561595,17.7878804 C12.8704452,17.648412 12.5448638,17.482299 12.0199468,17.475588 C11.4883854,17.4689435 11.1561595,17.6284784 10.8638007,17.7613688 C10.5980199,17.8875482 10.3654618,17.9939269 9.98007973,17.9872159 C9.60134219,17.9806379 9.38207309,17.8676146 9.1295814,17.7413688 C8.85051163,17.6018339 8.53821927,17.4490764 8.0398804,17.4490764 L8.02659136,17.4490764 C7.51496346,17.4556545 7.2026711,17.6217674 6.92360133,17.7613688 C6.67775415,17.8875482 6.46512957,18.000505 6.1129701,18.000505 C5.76745515,18.000505 5.56147508,17.9008372 5.29569435,17.7813023 C5.01662458,17.648412 4.70433223,17.5021661 4.21928239,17.4689435 C3.53489701,17.4158538 2.804,17.5952558 2.03323588,18.0071495 L2.32559468,18.558711 C2.98340199,18.206485 3.60798671,18.0470831 4.16612625,18.0935947 C4.53821927,18.1201063 4.77742193,18.2330631 5.0232691,18.3526645 C5.30233887,18.4855548 5.62127575,18.6317342 6.10632558,18.6317342 C6.61795349,18.6317342 6.93024585,18.4656213 7.20931561,18.3194419 C7.45516279,18.1932625 7.66778738,18.0803056 8.02659136,18.0735947 L8.0398804,18.0735947 C8.39203987,18.0735947 8.59137542,18.1732625 8.85051163,18.2995083 C9.1295814,18.4390432 9.44851827,18.5985116 9.97343522,18.6118671 C10.5049967,18.6184452 10.8372226,18.4590432 11.1295814,18.3261528 C11.3953621,18.1998405 11.6279203,18.0935947 12.0133023,18.1001728 C12.3986844,18.1068173 12.624598,18.213196 12.8837342,18.3460864 C13.162804,18.4855548 13.4750963,18.6383787 13.9734352,18.6383787 L14.0000133,18.6383787 C14.5116412,18.6317342 14.8239336,18.4656213 15.0963588,18.3194419 C15.342206,18.1865515 15.5415415,18.0868837 15.8870565,18.0803056 L15.9002791,18.0803056 C16.252505,18.0803056 16.4717741,18.1932625 16.7176213,18.3194419 C16.9966246,18.4656213 17.3222724,18.6317342 17.8271894,18.6317342 L17.8405449,18.6317342 C18.3322392,18.6317342 18.6577542,18.4656213 18.9368904,18.3261528 C19.1960266,18.1998405 19.4152957,18.0868837 19.7740997,18.0603721 C20.3123056,18.0271495 20.9168904,18.206485 21.5747641,18.5985116 L21.9003455,18.0603721 C21.1229369,17.6084784 20.3986844,17.3959203 19.727588,17.4423654 M18.8172757,12.518804 C18.8172757,13.4347508 18.072093,14.1799336 17.1561462,14.1799336 C16.2401993,14.1799336 15.4950166,13.4347508 15.4950166,12.518804 C15.4950166,11.6028571 16.2401993,10.8576744 17.1561462,10.8576744 C18.072093,10.8576744 18.8172757,11.6028571 18.8172757,12.518804 M14.8305648,12.518804 C14.8305648,13.8031894 15.8717608,14.8443854 17.1561462,14.8443854 C18.4405316,14.8443854 19.4817276,13.8031894 19.4817276,12.518804 C19.4817276,11.2344186 18.4405316,10.1932226 17.1561462,10.1932226 C15.8717608,10.1932226 14.8305648,11.2344186 14.8305648,12.518804" id="path-1"></path>
    </defs>
    <g id="Symbols" stroke="none" stroke-width="1" fill="none" fill-rule="evenodd">
        <g id="Atoms/Icons/No-Pool">
            <mask id="mask-2" fill="white">
                <use xlink:href="#path-1"></use>
            </mask>
            <use id="Combined-Shape" fill="#333333" fill-rule="nonzero" xlink:href="#path-1"></use>
            <g id="Atoms/Colors/Black" mask="url(#mask-2)" fill="#333333">
                <rect id="Rectangle-5-Copy" x="0" y="0" width="24" height="24"></rect>
            </g>
        </g>
    </g>
</svg>