<?xml version="1.0" encoding="UTF-8" standalone="no"?>
<svg width="24px" height="24px" viewBox="0 0 24 24" version="1.1" xmlns="http://www.w3.org/2000/svg" xmlns:xlink="http://www.w3.org/1999/xlink">
    <!-- Generator: Sketch 46.2 (44496) - http://www.bohemiancoding.com/sketch -->
    <title>Atoms/Icons/No Smoking</title>
    <desc>Created with Sketch.</desc>
    <defs>
        <path d="M12,0 C18.6167619,0 24,5.3832381 24,12.000381 C24,18.6171429 18.6167619,24 12,24 C5.3832381,24 0,18.6167619 0,12 C0,5.3832381 5.3832381,0 12,0 Z M22.8571429,12.000381 C22.8571429,6.01333333 17.9866667,1.14285714 12,1.14285714 C9.21142857,1.14285714 6.66628571,2.20038095 4.74133333,3.93409524 L12.3790476,11.5718095 L20.0659048,19.2586667 C21.8,17.3337143 22.8571429,14.7881905 22.8571429,12.000381 Z M1.14285714,12.000381 C1.14285714,17.9866667 6.01333333,22.8575238 12,22.8575238 C14.7878095,22.8575238 17.3333333,21.8 19.2582857,20.0666667 L15.4106667,16.2190476 L10.7630476,11.5718095 L3.93333333,4.74209524 C2.2,6.66704762 1.14285714,9.21219048 1.14285714,12.000381 Z M16.3303282,8.70772773 C16.5903917,8.85536795 16.5903917,8.87331504 16.5903917,8.99081768 C16.5903917,9.32944202 16.3577568,9.69888117 15.8992594,10.0886378 C15.6855875,10.2701404 15.6591748,10.5908177 15.8410161,10.8044896 C15.9415875,10.9226695 16.0844869,10.9836219 16.2284023,10.9836219 C16.3448891,10.9836219 16.4613758,10.9440029 16.5572065,10.862733 C17.2534182,10.2711563 17.6066034,9.64131504 17.6066034,8.99081768 C17.6066034,8.26379123 17.1216933,7.98882826 16.8321695,7.82425683 C16.5714287,7.676278 16.5714287,7.65833091 16.5714287,7.54082826 C16.5714287,7.34916689 16.6455875,7.26891292 16.9357885,7.03560075 C16.9936933,6.98887059 17.0522753,6.94180181 17.1091642,6.89270128 C17.3218203,6.70950551 17.345524,6.38882826 17.1623282,6.17617218 C16.9787938,5.96385472 16.6587938,5.94015101 16.4457991,6.12300816 C16.3977145,6.16465895 16.3486139,6.20393937 16.2995134,6.2432198 C15.98527,6.49549493 15.5555557,6.84055313 15.5555557,7.54048964 C15.5552171,8.26819334 16.0404658,8.54349493 16.3303282,8.70772773 Z M13.0965171,10.0168277 C13.4209192,9.77877482 13.8137235,9.4042563 13.8452155,8.97081715 C13.8543584,8.84823513 13.8553743,8.83231979 13.612242,8.66740974 C13.339988,8.48285947 12.8852155,8.17335683 12.9366864,7.45107111 C12.9868028,6.7524891 13.4405594,6.43858434 13.7720727,6.20933566 C13.8232049,6.17378011 13.8753531,6.13822455 13.9258081,6.10029863 C14.1509933,5.9330182 14.4693002,5.97974836 14.6365806,6.20493355 C14.803861,6.43011873 14.7567922,6.74808699 14.5319457,6.91570603 C14.4716706,6.96006582 14.4107182,7.00273249 14.3497658,7.04472191 C14.0426335,7.25703937 13.9633954,7.33187535 13.9498504,7.52353672 C13.9407076,7.64611873 13.9396917,7.66203408 14.182824,7.82694413 C14.455078,8.01149439 14.9098504,8.32099704 14.8583795,9.04328275 C14.811988,9.69310286 14.4103795,10.313124 13.6975753,10.83596 C13.606824,10.902669 13.5018504,10.9344997 13.3972155,10.9344997 C13.2411097,10.9344997 13.0870356,10.8623727 12.9874801,10.726923 C12.8212155,10.5007219 12.8703161,10.1827537 13.0965171,10.0168277 Z M5,12.2222222 L19,12.2222222 C19.5522847,12.2222222 20,12.6699375 20,13.2222222 L20,15.2222222 C20,15.774507 19.5522847,16.2222222 19,16.2222222 L5,16.2222222 C4.44771525,16.2222222 4,15.774507 4,15.2222222 L4,13.2222222 C4,12.6699375 4.44771525,12.2222222 5,12.2222222 Z M9.33333333,13.1111111 L9.33333333,15.3333333 L19.1111111,15.3333333 L19.1111111,13.1111111 L9.33333333,13.1111111 Z M4.88888889,13.1111111 L4.88888889,15.3333333 L8.44444444,15.3333333 L8.44444444,13.1111111 L4.88888889,13.1111111 Z" id="path-1"></path>
    </defs>
    <g id="Symbols" stroke="none" stroke-width="1" fill="none" fill-rule="evenodd">
        <g id="Atoms/Icons/No-Smoking">
            <mask id="mask-2" fill="white">
                <use xlink:href="#path-1"></use>
            </mask>
            <use id="Combined-Shape" fill="#333333" fill-rule="nonzero" xlink:href="#path-1"></use>
            <g id="Atoms/Colors/Black" mask="url(#mask-2)" fill="#333333">
                <rect id="Rectangle-5-Copy" x="0" y="0" width="24" height="24"></rect>
            </g>
        </g>
    </g>
</svg>