<?xml version="1.0" encoding="UTF-8"?>
<svg width="24px" height="24px" viewBox="0 0 24 24" version="1.1" xmlns="http://www.w3.org/2000/svg" xmlns:xlink="http://www.w3.org/1999/xlink">
    <!-- Generator: Sketch 46.2 (44496) - http://www.bohemiancoding.com/sketch -->
    <title>Atoms/Icons/Notficiation</title>
    <desc>Created with Sketch.</desc>
    <defs>
        <path d="M9,20 L15,20 C15,21.6568542 13.6568542,23 12,23 C10.3431458,23 9,21.6568542 9,20 Z M5,9 C5,4.10332357 7.57954533,1 12,1 C16.4204547,1 19,4.10332357 19,9.00001887 C18.9999355,10.5165999 19.1089463,11.2756572 19.4554075,12.1288904 C19.6827579,12.6887886 19.9980915,13.1696644 20.4142136,13.5857864 C22.3812384,15.5528112 21.755525,19 19,19 L4.99999999,19 C2.24447504,19 1.61876162,15.5528112 3.58578643,13.5857864 C5.04185912,12.1297138 5,12.2596274 5,9 Z M4.99999999,17 L19,17 C19.6617364,17 19.8673317,15.8673316 19,15 C18.392298,14.3922979 17.9289975,13.6857764 17.6023495,12.8813372 C17.1433714,11.7510076 16.9999254,10.7521731 16.9999994,9.02120813 C17,5.13459134 15.2256845,3 12,3 C8.7743155,3 7,5.13459134 7,9 C7,12.7459354 6.87922344,13.1207766 4.99999998,15 C4.13266834,15.8673316 4.33826363,17 4.99999999,17 Z" id="path-1"></path>
    </defs>
    <g id="Symbols" stroke="none" stroke-width="1" fill="none" fill-rule="evenodd">
        <g id="Atoms/Icons/Notficiation">
            <mask id="mask-2" fill="white">
                <use xlink:href="#path-1"></use>
            </mask>
            <use id="Combined-Shape" fill="#373B4D" fill-rule="nonzero" xlink:href="#path-1"></use>
            <g id="Atoms/Colors/Black" mask="url(#mask-2)" fill="#333333">
                <rect id="Rectangle-5-Copy" x="0" y="0" width="24" height="24"></rect>
            </g>
        </g>
    </g>
</svg>