<?xml version="1.0" encoding="UTF-8"?>
<svg width="24px" height="24px" viewBox="0 0 24 24" version="1.1" xmlns="http://www.w3.org/2000/svg" xmlns:xlink="http://www.w3.org/1999/xlink">
    <!-- Generator: Sketch 46.2 (44496) - http://www.bohemiancoding.com/sketch -->
    <title>Atoms/Icons/Outbox Line</title>
    <desc>Created with Sketch.</desc>
    <defs>
        <path d="M11,3.41421356 L8.70710678,5.70710678 C8.31658249,6.09763107 7.68341751,6.09763107 7.29289322,5.70710678 C6.90236893,5.31658249 6.90236893,4.68341751 7.29289322,4.29289322 L11.2928932,0.292893219 C11.6834175,-0.0976310729 12.3165825,-0.0976310729 12.7071068,0.292893219 L16.7071068,4.29289322 C17.0976311,4.68341751 17.0976311,5.31658249 16.7071068,5.70710678 C16.3165825,6.09763107 15.6834175,6.09763107 15.2928932,5.70710678 L13,3.41421356 L13,11 C13,11.5522847 12.5522847,12 12,12 C11.4477153,12 11,11.5522847 11,11 L11,3.41421356 Z M6.27771943,5 L3.07693065,13.0104121 L8.72477184,13.0104121 L9.24874942,14.209669 C9.72584948,15.3016345 10.8029383,16.0104121 12,16.0104121 C13.1970617,16.0104121 14.2741505,15.3016345 14.7512505,14.2096689 L15.2752281,13.0104121 L20.980022,13.0104121 L17.7792332,5 L19.9329862,5 L23.0624455,12.8319001 L23,15.0246484 L23,20.0196342 C23,21.6718996 21.6591226,23.0104121 20.0066023,23.0104121 L3.99339768,23.0104121 C2.34338293,23.0104121 1,21.6672074 1,20.0196342 L1,12.8181537 L4.12396642,5 L6.27771943,5 Z M3,15.0104121 L3,20.0196341 C3,20.5625785 3.44789304,21.0104121 3.99339768,21.0104121 L20.0066023,21.0104121 C20.5553426,21.0104121 21,20.566539 21,20.0196341 L21,15.0104121 L16.5839563,15.0104121 C15.7893874,16.8289866 13.9940424,18.0104121 12,18.0104121 C10.0059576,18.0104121 8.21061265,16.8289866 7.41604368,15.0104122 L3,15.0104121 Z" id="path-1"></path>
    </defs>
    <g id="Symbols" stroke="none" stroke-width="1" fill="none" fill-rule="evenodd">
        <g id="Atoms/Icons/Outbox-Line">
            <mask id="mask-2" fill="white">
                <use xlink:href="#path-1"></use>
            </mask>
            <use id="Combined-Shape" fill="#333333" fill-rule="nonzero" xlink:href="#path-1"></use>
            <g id="Atoms/Colors/Black" mask="url(#mask-2)" fill="#333333">
                <rect id="Rectangle-5-Copy" x="0" y="0" width="24" height="24"></rect>
            </g>
        </g>
    </g>
</svg>