<?xml version="1.0" encoding="UTF-8"?>
<svg width="24px" height="24px" viewBox="0 0 24 24" version="1.1" xmlns="http://www.w3.org/2000/svg" xmlns:xlink="http://www.w3.org/1999/xlink">
    <!-- Generator: Sketch 46.2 (44496) - http://www.bohemiancoding.com/sketch -->
    <title>Atoms/Icons/Sits</title>
    <desc>Created with Sketch.</desc>
    <defs>
        <path d="M6.80797364,17.7102446 C7.05000476,20.2018292 9.42412378,22.1538462 12.3080816,22.1538462 C15.1929506,22.1538462 17.5659439,20.2020512 17.8071007,17.7094346 L18.7457132,8.03012486 C18.897711,6.46276532 18.3074158,4.90497626 17.1050101,3.72969521 C15.8830675,2.53348238 14.1407816,1.84615385 12.3080816,1.84615385 C10.4762253,1.84615385 8.73386365,2.53363898 7.50957245,3.73115406 C6.30826383,4.90536237 5.71822861,6.46310691 5.8694271,8.03161668 L6.80797364,17.7102446 Z M4.03184197,8.20928109 C3.82619387,6.07592101 4.62375151,3.97029915 6.2188888,2.41114662 C7.79344742,0.871024607 10.0009714,0 12.3080816,0 C14.6161317,0 16.8238497,0.870940594 18.3959681,2.40995631 C19.9919984,3.96998171 20.7900333,6.07599603 20.5832472,8.20831788 L19.6446548,17.8874196 C19.3079925,21.3671904 16.1070212,24 12.3080816,24 C8.51030966,24 5.30837925,21.3673509 4.97045397,17.8885854 L4.03184197,8.20928109 Z M16.0802539,8.98679599 C16.0802539,6.87785711 14.4220376,5.17725753 12.3879462,5.17725753 C10.3538548,5.17725753 8.69563851,6.87785711 8.69563851,8.98679599 C8.69563851,11.0361943 10.2925817,12.5618729 12.3879462,12.5618729 C14.4833107,12.5618729 16.0802539,11.0361943 16.0802539,8.98679599 Z M17.9264077,8.98679599 C17.9264077,12.0751258 15.4845368,14.4080268 12.3879462,14.4080268 C9.29135557,14.4080268 6.84948466,12.0751258 6.84948466,8.98679599 C6.84948466,5.86853696 9.32367866,3.33110368 12.3879462,3.33110368 C15.4522137,3.33110368 17.9264077,5.86853696 17.9264077,8.98679599 Z M10.4418162,16.6108429 L19.1590905,13.0323603 L19.8601729,14.7402149 L12.9257876,17.5868131 L18.0846265,19.613758 L17.4095015,21.3320391 L5.54871145,16.6718496 L6.22383646,14.9535684 L10.4418162,16.6108429 Z M14.1538325,9.69230769 C14.1538325,10.4969199 13.5341828,11.0769231 12.7692171,11.0769231 C12.0069932,11.0769231 11.3846017,10.4969199 11.3846017,9.69230769 L14.1538325,9.69230769 Z M10.9230633,8.30769231 C10.9230633,8.03314172 11.0726737,7.84615385 11.1999863,7.84615385 C11.3276972,7.84615385 11.4769094,8.0327728 11.4769094,8.30769231 C11.4769094,8.56259296 11.6835472,8.76923077 11.9384479,8.76923077 C12.1933485,8.76923077 12.3999863,8.56259296 12.3999863,8.30769231 C12.3999863,7.56266121 11.8886034,6.92307692 11.1999863,6.92307692 C10.5119379,6.92307692 9.99998633,7.56293013 9.99998633,8.30769231 C9.99998633,8.56259296 10.2066241,8.76923077 10.4615248,8.76923077 C10.7164254,8.76923077 10.9230633,8.56259296 10.9230633,8.30769231 Z M14.0615248,8.30769231 C14.0615248,8.03314172 14.2111353,7.84615385 14.3384479,7.84615385 C14.4661588,7.84615385 14.6153709,8.0327728 14.6153709,8.30769231 C14.6153709,8.56259296 14.8220088,8.76923077 15.0769094,8.76923077 C15.3318101,8.76923077 15.5384479,8.56259296 15.5384479,8.30769231 C15.5384479,7.56266121 15.0270649,6.92307692 14.3384479,6.92307692 C13.6503994,6.92307692 13.1384479,7.56293013 13.1384479,8.30769231 C13.1384479,8.56259296 13.3450857,8.76923077 13.5999863,8.76923077 C13.854887,8.76923077 14.0615248,8.56259296 14.0615248,8.30769231 Z" id="path-1"></path>
    </defs>
    <g id="Symbols" stroke="none" stroke-width="1" fill="none" fill-rule="evenodd">
        <g id="Atoms/Icons/Sits">
            <mask id="mask-2" fill="white">
                <use xlink:href="#path-1"></use>
            </mask>
            <use id="Combined-Shape" fill="#333333" fill-rule="nonzero" xlink:href="#path-1"></use>
            <g id="Atoms/Colors/Black" mask="url(#mask-2)" fill="#333333">
                <rect id="Rectangle-5-Copy" x="0" y="0" width="24" height="24"></rect>
            </g>
        </g>
    </g>
</svg>