<?xml version="1.0" encoding="UTF-8"?>
<svg width="24px" height="24px" viewBox="0 0 24 24" version="1.1" xmlns="http://www.w3.org/2000/svg" xmlns:xlink="http://www.w3.org/1999/xlink">
    <!-- Generator: Sketch 46.2 (44496) - http://www.bohemiancoding.com/sketch -->
    <title>Atoms/Icons/Twitter</title>
    <desc>Created with Sketch.</desc>
    <defs>
        <path d="M24,4.3676415 C23.1181545,4.769231 22.1686915,5.040809 21.1727415,5.1621525 C22.189822,4.5381005 22.970241,3.5485735 23.3379115,2.3698085 C22.3856315,2.9476345 21.3333335,3.368003 20.209192,3.593355 C19.3132595,2.6124955 18.032752,2 16.6156015,2 C13.8982215,2 11.693608,4.260744 11.693608,7.048754 C11.693608,7.444565 11.735869,7.828819 11.820391,8.1986275 C7.728121,7.987721 4.100722,5.979776 1.6707165,2.9216325 C1.2466985,3.669917 1.004402,4.5381005 1.004402,5.462622 C1.004402,7.2134345 1.8735695,8.759119 3.1949285,9.664861 C2.389153,9.6403035 1.6284555,9.4106175 0.96355,9.0350305 L0.96355,9.097147 C0.96355,11.54424 2.661032,13.58541 4.91495,14.0476705 C4.502201,14.166125 4.066913,14.225352 3.6175385,14.225352 C3.300581,14.225352 2.9906675,14.1950165 2.6906145,14.135789 C3.3174855,16.140845 5.134707,17.6013 7.290016,17.6403035 C5.605212,18.995305 3.4808945,19.802817 1.1748545,19.802817 C0.7776015,19.802817 0.3845745,19.779704 0,19.733478 C2.179257,21.163597 4.768445,22 7.5478075,22 C16.6057405,22 21.5573165,14.3076925 21.5573165,7.6352475 C21.5573165,7.4156735 21.5530905,7.1960995 21.544638,6.9808595 C22.5067795,6.268689 23.3421375,5.3802815 24,4.3676415" id="path-1"></path>
    </defs>
    <g id="Symbols" stroke="none" stroke-width="1" fill="none" fill-rule="evenodd">
        <g id="Atoms/Icons/Twitter">
            <mask id="mask-2" fill="white">
                <use xlink:href="#path-1"></use>
            </mask>
            <use id="Twitter" fill="#000000" fill-rule="nonzero" xlink:href="#path-1"></use>
            <g id="Atoms/Colors/Black" mask="url(#mask-2)" fill="#333333">
                <rect id="Rectangle-5-Copy" x="0" y="0" width="24" height="24"></rect>
            </g>
        </g>
    </g>
</svg>