<?xml version="1.0" encoding="UTF-8" standalone="no"?>
<svg width="24px" height="24px" viewBox="0 0 24 24" version="1.1" xmlns="http://www.w3.org/2000/svg" xmlns:xlink="http://www.w3.org/1999/xlink">
    <!-- Generator: Sketch 46.2 (44496) - http://www.bohemiancoding.com/sketch -->
    <title>Atoms/Icons/Yes CPR</title>
    <desc>Created with Sketch.</desc>
    <defs>
        <path d="M12,0 C18.6167619,0 24,5.3832381 24,12.000381 C24,18.6171429 18.6167619,24 12,24 C5.3832381,24 0,18.6167619 0,12 C0,5.3832381 5.3832381,0 12,0 Z M12,1 C5.93463492,1 1,5.93463492 1,12 C1,18.0653651 5.93463492,23 12,23 C18.0653651,23 23,18.0657143 23,12.0003492 C23,5.93463492 18.0653651,1 12,1 Z M11.9994913,20.5347917 L5.75594039,14.5889583 C4.64200776,13.5708333 4,12.015625 4,10.3270833 C4,7.38958333 5.94535473,5 8.33651991,5 C9.8372512,5 11.2131759,5.95270833 11.9994913,7.48333333 C12.7859762,5.95270833 14.1627488,5 15.6646671,5 C18.0553236,5 20,7.38979167 20,10.3270833 C20,12.016875 19.3579922,13.5720833 18.2384637,14.5939583 L11.9994913,20.5347917 Z M8.33651991,5.833125 C6.31926574,5.833125 4.67829663,7.84895833 4.67829663,10.326875 C4.67829663,11.749375 5.22059478,13.0608333 6.16597071,13.925 L11.9993217,19.4802083 L17.8284333,13.9297917 C18.7794052,13.0616667 19.3217034,11.7502083 19.3217034,10.3266667 C19.3217034,7.84875 17.6810734,5.83291667 15.6646671,5.83291667 C14.2087034,5.83291667 12.8921296,6.89458333 12.3104903,8.53770833 L11.9994913,9.41604167 L11.6884923,8.53770833 C11.1068529,6.895 9.79112703,5.833125 8.33651991,5.833125 Z M10.5361667,12.9220833 L10.4091667,13.3752083 L8.27883333,13.3752083 L8.27883333,12.6339583 L9.9885,12.6339583 L10.4693333,10.9170833 L11.7191667,14.4160417 L13.0345,9.354375 L14.0598333,12.8191667 L15.7215,12.8191667 L15.7215,13.5604167 L13.6468333,13.5604167 L13.071,11.6139583 L11.8066667,16.4791667 L10.5361667,12.9220833 Z" id="path-1"></path>
    </defs>
    <g id="Symbols" stroke="none" stroke-width="1" fill="none" fill-rule="evenodd">
        <g id="Atoms/Icons/Yes-CPR">
            <mask id="mask-2" fill="white">
                <use xlink:href="#path-1"></use>
            </mask>
            <use id="Combined-Shape" fill="#333333" fill-rule="nonzero" xlink:href="#path-1"></use>
            <g id="Atoms/Colors/Black" mask="url(#mask-2)" fill="#333333">
                <rect id="Rectangle-5-Copy" x="0" y="0" width="24" height="24"></rect>
            </g>
        </g>
    </g>
</svg>