<?xml version="1.0" encoding="UTF-8" standalone="no"?>
<svg width="24px" height="24px" viewBox="0 0 24 24" version="1.1" xmlns="http://www.w3.org/2000/svg" xmlns:xlink="http://www.w3.org/1999/xlink">
    <!-- Generator: Sketch 46.2 (44496) - http://www.bohemiancoding.com/sketch -->
    <title>Atoms/Icons/Yes Pets</title>
    <desc>Created with Sketch.</desc>
    <defs>
        <path d="M12,0 C18.6167619,0 24,5.3832381 24,12.000381 C24,18.6171429 18.6167619,24 12,24 C5.3832381,24 0,18.6167619 0,12 C0,5.3832381 5.3832381,0 12,0 Z M12,1 C5.93463492,1 1,5.93463492 1,12 C1,18.0653651 5.93463492,23 12,23 C18.0653651,23 23,18.0657143 23,12.0003492 C23,5.93463492 18.0653651,1 12,1 Z M20,8.78666667 L20,10.8666667 C20,11.08 19.8133333,11.2666667 19.6,11.2666667 L18.56,11.2666667 L18.56,10.4666667 L19.2,10.4666667 L19.2,9.18666667 L18.56,9.18666667 L18.56,8.44 C18.56,8.41333333 18.56,8.41333333 18.56,8.38666667 L19.6,8.38666667 C19.8133333,8.38666667 20,8.54666667 20,8.78666667 Z M18.0266667,7.42666667 L18.0266667,8.44 L18.0266667,12.3866667 C18.0266667,12.6 17.84,12.7866667 17.6266667,12.7866667 L13.1466667,12.7866667 L12.5333333,14.4133333 C12.48,14.5733333 12.32,14.68 12.16,14.68 L10,14.68 L9.70666667,17.2933333 C9.68,17.5066667 9.52,17.64 9.30666667,17.64 L6.85333333,17.64 C6.56,17.64 6.26666667,17.5066667 6.08,17.2933333 C5.89333333,17.08 5.78666667,16.7866667 5.81333333,16.4933333 L6.26666667,12.5466667 L4.42666667,11.24 C4.32,11.1866667 4.26666667,11.08 4.26666667,10.9466667 L4,8.46666667 C4,8.36 4.02666667,8.25333333 4.10666667,8.14666667 C4.18666667,8.06666667 4.29333333,8.01333333 4.4,8.01333333 L17.2266667,8.01333333 L17.2266667,7.4 C17.2266667,7.18666667 17.4133333,7 17.6266667,7 C17.84,7 18.0266667,7.21333333 18.0266667,7.42666667 Z M12.2933333,12.76 L11.6533333,12.76 L11.6533333,13.2933333 C11.6533333,13.5066667 11.4666667,13.6933333 11.2533333,13.6933333 C11.04,13.6933333 10.8533333,13.5066667 10.8533333,13.2933333 L10.8533333,12.76 L10.24,12.76 L10.1066667,13.8533333 L11.8933333,13.8533333 L12.2933333,12.76 Z M17.2266667,8.84 L4.85333333,8.84 L5.06666667,10.7066667 L6.96,12.04 C7.06666667,12.12 7.14666667,12.28 7.12,12.4133333 L6.64,16.6 C6.64,16.68 6.66666667,16.76 6.69333333,16.7866667 C6.72,16.8133333 6.77333333,16.8666667 6.85333333,16.8666667 L8.96,16.8666667 L9.49333333,12.36 C9.52,12.1466667 9.68,12.0133333 9.89333333,12.0133333 L17.2533333,12.0133333 L17.2533333,10.2533333 L6.93333333,10.2533333 C6.72,10.2533333 6.53333333,10.0666667 6.53333333,9.85333333 C6.53333333,9.64 6.72,9.45333333 6.93333333,9.45333333 L17.2266667,9.45333333 L17.2266667,8.84 Z" id="path-1"></path>
    </defs>
    <g id="Symbols" stroke="none" stroke-width="1" fill="none" fill-rule="evenodd">
        <g id="Atoms/Icons/Yes-Pets">
            <mask id="mask-2" fill="white">
                <use xlink:href="#path-1"></use>
            </mask>
            <use id="Combined-Shape" fill="#333333" fill-rule="nonzero" xlink:href="#path-1"></use>
            <g id="Atoms/Colors/Black" mask="url(#mask-2)" fill="#333333">
                <rect id="Rectangle-5-Copy" x="0" y="0" width="24" height="24"></rect>
            </g>
        </g>
    </g>
</svg>