<?xml version="1.0" encoding="UTF-8" standalone="no"?>
<svg width="24px" height="24px" viewBox="0 0 24 24" version="1.1" xmlns="http://www.w3.org/2000/svg" xmlns:xlink="http://www.w3.org/1999/xlink">
    <!-- Generator: Sketch 46.2 (44496) - http://www.bohemiancoding.com/sketch -->
    <title>Atoms/Icons/Yes Smoking</title>
    <desc>Created with Sketch.</desc>
    <defs>
        <path d="M12,0 C18.6167619,0 24,5.3832381 24,12.000381 C24,18.6171429 18.6167619,24 12,24 C5.3832381,24 0,18.6167619 0,12 C0,5.3832381 5.3832381,0 12,0 Z M12,1 C5.93463492,1 1,5.93463492 1,12 C1,18.0653651 5.93463492,23 12,23 C18.0653651,23 23,18.0657143 23,12.0003492 C23,5.93463492 18.0653651,1 12,1 Z M5,13.2222222 L19,13.2222222 C19.5522847,13.2222222 20,13.6699375 20,14.2222222 L20,16.2222222 C20,16.774507 19.5522847,17.2222222 19,17.2222222 L5,17.2222222 C4.44771525,17.2222222 4,16.774507 4,16.2222222 L4,14.2222222 C4,13.6699375 4.44771525,13.2222222 5,13.2222222 Z M9.33333333,14.1111111 L9.33333333,16.3333333 L19.1111111,16.3333333 L19.1111111,14.1111111 L9.33333333,14.1111111 Z M4.88888889,14.1111111 L4.88888889,16.3333333 L8.44444444,16.3333333 L8.44444444,14.1111111 L4.88888889,14.1111111 Z M16.3303282,9.70772773 C16.0404658,9.54349493 15.5552171,9.26819334 15.5555557,8.54048964 C15.5555557,7.84055313 15.98527,7.49549493 16.2995134,7.2432198 C16.3486139,7.20393937 16.3977145,7.16465895 16.4457991,7.12300816 C16.6587938,6.94015101 16.9787938,6.96385472 17.1623282,7.17617218 C17.345524,7.38882826 17.3218203,7.70950551 17.1091642,7.89270128 C17.0522753,7.94180181 16.9936933,7.98887059 16.9357885,8.03560075 C16.6455875,8.26891292 16.5714287,8.34916689 16.5714287,8.54082826 C16.5714287,8.65833091 16.5714287,8.676278 16.8321695,8.82425683 C17.1216933,8.98882826 17.6066034,9.26379123 17.6066034,9.99081768 C17.6066034,10.641315 17.2534182,11.2711563 16.5572065,11.862733 C16.4613758,11.9440029 16.3448891,11.9836219 16.2284023,11.9836219 C16.0844869,11.9836219 15.9415875,11.9226695 15.8410161,11.8044896 C15.6591748,11.5908177 15.6855875,11.2701404 15.8992594,11.0886378 C16.3577568,10.6988812 16.5903917,10.329442 16.5903917,9.99081768 C16.5903917,9.87331504 16.5903917,9.85536795 16.3303282,9.70772773 Z M13.0965171,11.0168277 C13.4209192,10.7787748 13.8137235,10.4042563 13.8452155,9.97081715 C13.8543584,9.84823513 13.8553743,9.83231979 13.612242,9.66740974 C13.339988,9.48285947 12.8852155,9.17335683 12.9366864,8.45107111 C12.9868028,7.7524891 13.4405594,7.43858434 13.7720727,7.20933566 C13.8232049,7.17378011 13.8753531,7.13822455 13.9258081,7.10029863 C14.1509933,6.9330182 14.4693002,6.97974836 14.6365806,7.20493355 C14.803861,7.43011873 14.7567922,7.74808699 14.5319457,7.91570603 C14.4716706,7.96006582 14.4107182,8.00273249 14.3497658,8.04472191 C14.0426335,8.25703937 13.9633954,8.33187535 13.9498504,8.52353672 C13.9407076,8.64611873 13.9396917,8.66203408 14.182824,8.82694413 C14.455078,9.01149439 14.9098504,9.32099704 14.8583795,10.0432828 C14.811988,10.6931029 14.4103795,11.313124 13.6975753,11.83596 C13.606824,11.902669 13.5018504,11.9344997 13.3972155,11.9344997 C13.2411097,11.9344997 13.0870356,11.8623727 12.9874801,11.726923 C12.8212155,11.5007219 12.8703161,11.1827537 13.0965171,11.0168277 Z" id="path-1"></path>
    </defs>
    <g id="Symbols" stroke="none" stroke-width="1" fill="none" fill-rule="evenodd">
        <g id="Atoms/Icons/Yes-Smoking">
            <mask id="mask-2" fill="white">
                <use xlink:href="#path-1"></use>
            </mask>
            <use id="Combined-Shape" fill="#333333" fill-rule="nonzero" xlink:href="#path-1"></use>
            <g id="Atoms/Colors/Black" mask="url(#mask-2)" fill="#333333">
                <rect id="Rectangle-5-Copy" x="0" y="0" width="24" height="24"></rect>
            </g>
        </g>
    </g>
</svg>