<?xml version="1.0" encoding="UTF-8" standalone="no"?>
<svg width="24px" height="24px" viewBox="0 0 24 24" version="1.1" xmlns="http://www.w3.org/2000/svg" xmlns:xlink="http://www.w3.org/1999/xlink">
    <!-- Generator: Sketch 46.2 (44496) - http://www.bohemiancoding.com/sketch -->
    <title>Atoms/Icons/Yes First-Aid</title>
    <desc>Created with Sketch.</desc>
    <defs>
        <path d="M10.7183062,16.6100796 C10.713531,16.605659 10.7088212,16.601128 10.7041799,16.5964867 L7.40417994,13.2964867 C7.39953862,13.2918454 7.39500762,13.2871355 7.39058695,13.2823604 L5.05452897,10.9463024 C3.42741867,9.31994995 3.42695008,6.68136711 5.05452894,5.05303097 C6.68178596,3.42653151 9.32030496,3.42653151 10.9468867,5.05311328 L18.9468044,13.0536976 C20.5735234,14.679659 20.5735234,17.3204321 18.9468044,18.9456357 C17.3194483,20.5722342 14.6809294,20.5727028 13.0544466,18.9462201 L10.7183062,16.6100796 Z M12.2364767,7.7570832 L10.2397652,5.76020533 C9.00369504,4.52413515 6.99821404,4.52413515 5.76163562,5.76013781 C4.52463739,6.99771165 4.52499353,9.00312935 5.76155339,10.2391133 L7.758,12.2355599 L12.2364767,7.7570832 Z M16.2437272,11.7646676 L11.7651295,16.2426894 L13.7615534,18.2391133 C14.9974831,19.4750429 17.002964,19.4746868 18.2399447,18.2382819 C19.4758099,17.0035679 19.4758099,14.996341 18.2397652,13.760872 L16.2437272,11.7646676 Z M11.0577561,15.5358493 L15.5359014,11.0582796 L12.9424357,8.46533774 L8.46484011,12.9429333 L11.0577561,15.5358493 Z M6.81533333,9.31 C6.73,9.31 6.64466667,9.342 6.57933333,9.40733333 C6.44933333,9.538 6.44933333,9.74866667 6.57933333,9.87933333 C6.64466667,9.94466667 6.73,9.97666667 6.81533333,9.97666667 C6.90066667,9.97666667 6.986,9.944 7.05133333,9.87933333 C7.182,9.74866667 7.182,9.538 7.05133333,9.40733333 C6.986,9.342 6.90066667,9.31 6.81533333,9.31 M8.22933333,7.89533333 C8.144,7.89533333 8.05866667,7.928 7.99333333,7.99333333 C7.86333333,8.12266667 7.86333333,8.33466667 7.99333333,8.46533333 C8.05866667,8.53 8.144,8.56266667 8.22933333,8.56266667 C8.31466667,8.56266667 8.4,8.52933333 8.46466667,8.46466667 C8.59466667,8.33466667 8.59466667,8.12266667 8.46466667,7.99266667 C8.4,7.928 8.31466667,7.89533333 8.22933333,7.89533333 M6.57933333,7.65933333 C6.494,7.65933333 6.40866667,7.69133333 6.34333333,7.75666667 C6.21333333,7.88666667 6.21333333,8.09733333 6.34333333,8.22866667 C6.40866667,8.294 6.494,8.32666667 6.57933333,8.32666667 C6.66466667,8.32666667 6.75,8.294 6.81533333,8.22933333 C6.946,8.098 6.946,7.88733333 6.81533333,7.75733333 C6.75,7.692 6.66466667,7.65933333 6.57933333,7.65933333 M7.99333333,6.246 C7.908,6.246 7.82266667,6.27866667 7.75733333,6.34333333 C7.62733333,6.47333333 7.62733333,6.68466667 7.75733333,6.81466667 C7.82266667,6.88 7.908,6.91266667 7.99333333,6.91266667 C8.07866667,6.91266667 8.164,6.88 8.22933333,6.814 C8.35933333,6.684 8.35933333,6.47333333 8.22933333,6.34266667 C8.164,6.27866667 8.07866667,6.246 7.99333333,6.246 M8.46466667,9.54466667 C8.37933333,9.54466667 8.294,9.578 8.22866667,9.64333333 C8.09866667,9.77333333 8.09866667,9.984 8.22866667,10.1146667 C8.294,10.18 8.37933333,10.2126667 8.46466667,10.2126667 C8.55,10.2126667 8.63533333,10.18 8.70066667,10.114 C8.83066667,9.984 8.83066667,9.77266667 8.70066667,9.64266667 C8.63533333,9.578 8.55,9.54466667 8.46466667,9.54466667 M9.87866667,8.13066667 C9.79333333,8.13066667 9.708,8.16333333 9.64266667,8.22866667 C9.51266667,8.35866667 9.51266667,8.56933333 9.64266667,8.69933333 C9.708,8.76533333 9.79333333,8.798 9.87866667,8.798 C9.964,8.798 10.0493333,8.76533333 10.1146667,8.69933333 C10.2453333,8.56933333 10.2453333,8.35866667 10.1146667,8.22866667 C10.0493333,8.164 9.964,8.13066667 9.87866667,8.13066667 M9.64333333,6.48066667 C9.558,6.48066667 9.47266667,6.51333333 9.40733333,6.578 C9.27733333,6.70866667 9.27733333,6.92 9.40733333,7.05 C9.47266667,7.11533333 9.558,7.148 9.64333333,7.148 C9.72866667,7.148 9.814,7.11533333 9.87933333,7.05 C10.0093333,6.92 10.0093333,6.70866667 9.87933333,6.578 C9.814,6.51333333 9.72866667,6.48066667 9.64333333,6.48066667 M14.3573333,16.8526667 C14.272,16.8526667 14.1866667,16.8846667 14.1213333,16.95 C13.9913333,17.08 13.9913333,17.2906667 14.1213333,17.422 C14.1866667,17.4866667 14.272,17.5186667 14.3573333,17.5186667 C14.4426667,17.5186667 14.528,17.4873333 14.5933333,17.422 C14.7233333,17.2906667 14.7233333,17.08 14.5933333,16.95 C14.528,16.8846667 14.4426667,16.8526667 14.3573333,16.8526667 M15.7713333,15.4373333 C15.686,15.4373333 15.6006667,15.4706667 15.5353333,15.5353333 C15.4046667,15.6653333 15.4046667,15.8766667 15.5353333,16.0073333 C15.6006667,16.0726667 15.686,16.1046667 15.7713333,16.1046667 C15.8566667,16.1046667 15.942,16.072 16.0073333,16.0073333 C16.1373333,15.8766667 16.1373333,15.666 16.0073333,15.5353333 C15.942,15.4706667 15.8566667,15.4373333 15.7713333,15.4373333 M16.0073333,17.0873333 C15.922,17.0873333 15.8366667,17.12 15.7713333,17.1846667 C15.6413333,17.316 15.6413333,17.5266667 15.7713333,17.6566667 C15.8366667,17.722 15.922,17.754 16.0073333,17.754 C16.0926667,17.754 16.178,17.7213333 16.2433333,17.6566667 C16.374,17.5273333 16.374,17.316 16.2433333,17.1846667 C16.178,17.12 16.0926667,17.0873333 16.0073333,17.0873333 M17.422,15.674 C17.3366667,15.674 17.2513333,15.7066667 17.186,15.7713333 C17.056,15.9013333 17.056,16.112 17.186,16.2426667 C17.2513333,16.308 17.3366667,16.34 17.422,16.34 C17.5073333,16.34 17.5926667,16.3073333 17.658,16.2426667 C17.788,16.112 17.788,15.9013333 17.658,15.7713333 C17.5926667,15.7066667 17.5073333,15.674 17.422,15.674 M14.122,15.202 C14.0366667,15.202 13.9513333,15.2346667 13.886,15.3 C13.756,15.43 13.756,15.6413333 13.886,15.772 C13.9513333,15.8366667 14.0366667,15.8693333 14.122,15.8693333 C14.2073333,15.8693333 14.2926667,15.8366667 14.358,15.772 C14.488,15.642 14.488,15.43 14.358,15.3 C14.292,15.2346667 14.2073333,15.202 14.122,15.202 M15.536,13.788 C15.4506667,13.788 15.3653333,13.82 15.3,13.8853333 C15.17,14.0166667 15.17,14.2266667 15.3,14.3573333 C15.3653333,14.4226667 15.4506667,14.4546667 15.536,14.4546667 C15.6213333,14.4546667 15.7066667,14.422 15.772,14.3573333 C15.9026667,14.2266667 15.9026667,14.0166667 15.772,13.8853333 C15.7066667,13.82 15.6213333,13.788 15.536,13.788 M12,0 C18.6167619,0 24,5.3832381 24,12.000381 C24,18.6171429 18.6167619,24 12,24 C5.3832381,24 -8.8817842e-16,18.6167619 -8.8817842e-16,12 C-8.8817842e-16,5.3832381 5.3832381,0 12,0 Z M12,1 C5.93463492,1 1,5.93463492 1,12 C1,18.0653651 5.93463492,23 12,23 C18.0653651,23 23,18.0657143 23,12.0003492 C23,5.93463492 18.0653651,1 12,1 Z" id="path-1"></path>
    </defs>
    <g id="Symbols" stroke="none" stroke-width="1" fill="none" fill-rule="evenodd">
        <g id="Atoms/Icons/Yes-First-Aid">
            <mask id="mask-2" fill="white">
                <use xlink:href="#path-1"></use>
            </mask>
            <use id="Combined-Shape" fill="#333333" fill-rule="nonzero" xlink:href="#path-1"></use>
            <g id="Atoms/Colors/Black" mask="url(#mask-2)" fill="#333333">
                <rect id="Rectangle-5-Copy" x="0" y="0" width="24" height="24"></rect>
            </g>
        </g>
    </g>
</svg>